<mxfile host="Electron" agent="Mozilla/5.0 (Macintosh; Intel Mac OS X 10_15_7) AppleWebKit/537.36 (KHTML, like Gecko) draw.io/24.7.5 Chrome/126.0.6478.183 Electron/31.3.0 Safari/537.36" version="24.7.5">
  <diagram name="Page-1" id="cJ6PFmXqZ2eMsh0OqEfn">
    <mxGraphModel dx="1578" dy="1143" grid="1" gridSize="10" guides="1" tooltips="1" connect="1" arrows="1" fold="1" page="1" pageScale="1" pageWidth="850" pageHeight="1100" math="0" shadow="0">
      <root>
        <mxCell id="0" />
        <mxCell id="1" parent="0" />
        <mxCell id="xotWHUOHVs64-DjdIuKV-2" value="" style="rounded=0;whiteSpace=wrap;html=1;fillColor=#232F3C;strokeColor=#232F3C;" vertex="1" parent="1">
          <mxGeometry x="80" y="40" width="1240" height="720" as="geometry" />
        </mxCell>
        <mxCell id="xotWHUOHVs64-DjdIuKV-6" value="" style="rounded=0;whiteSpace=wrap;html=1;strokeColor=#5CA1A8;fillColor=none;" vertex="1" parent="1">
          <mxGeometry x="180" y="90" width="1100" height="630" as="geometry" />
        </mxCell>
        <mxCell id="xotWHUOHVs64-DjdIuKV-1" value="" style="shape=image;verticalLabelPosition=bottom;labelBackgroundColor=default;verticalAlign=top;aspect=fixed;imageAspect=0;image=data:image/svg+xml,PHN2ZyB4bWxuczp4bGluaz0iaHR0cDovL3d3dy53My5vcmcvMTk5OS94bGluayIgeG1sbnM9Imh0dHA6Ly93d3cudzMub3JnLzIwMDAvc3ZnIiB2ZXJzaW9uPSIxLjEiIHZpZXdCb3g9IjAgMCA0MCA0MCIgaGVpZ2h0PSI0MHB4IiB3aWR0aD0iNDBweCI+JiN4YTsgICAgPHRpdGxlPkljb24tQXJjaGl0ZWN0dXJlLUdyb3VwLzMyL0FXUy1DbG91ZC1sb2dvXzMyX0Rhcms8L3RpdGxlPiYjeGE7ICAgIDxnIGZpbGwtcnVsZT0iZXZlbm9kZCIgZmlsbD0ibm9uZSIgc3Ryb2tlLXdpZHRoPSIxIiBzdHJva2U9Im5vbmUiIGlkPSJJY29uLUFyY2hpdGVjdHVyZS1Hcm91cC8zMi9BV1MtQ2xvdWQtbG9nb18zMiI+JiN4YTsgICAgICAgIDxyZWN0IGhlaWdodD0iNDAiIHdpZHRoPSI0MCIgeT0iMCIgeD0iMCIgZmlsbD0iI0ZGRkZGRiIgaWQ9IlJlY3RhbmdsZSIvPiYjeGE7ICAgICAgICA8cGF0aCBmaWxsPSIjMjMyRjNFIiBpZD0iRmlsbC0xIiBkPSJNMzIuNjk4MiwyMy45MDA4IEMzMy4wNTkyLDI0LjM2OTggMzIuMjk4MiwyNi4yOTk4IDMxLjk1NzIsMjcuMTYzOCBDMzEuODUzMiwyNy40MjU4IDMyLjA3NTIsMjcuNTI4OCAzMi4zMDcyLDI3LjMzMTggQzMzLjgyMDIsMjYuMDQ3OCAzNC4yMTIyLDIzLjM1NjggMzMuOTAxMiwyMi45Njg4IEMzMy41OTQyLDIyLjU4MjggMzAuOTUwMiwyMi4yNTE4IDI5LjMzODIsMjMuNDAwOCBDMjkuMDg5MiwyMy41Nzc4IDI5LjEzMjIsMjMuODIxOCAyOS40MDcyLDIzLjc4OTggQzMwLjMxNTIsMjMuNjc3OCAzMi4zMzgyLDIzLjQzMjggMzIuNjk4MiwyMy45MDA4IEwzMi42OTgyLDIzLjkwMDggWiBNMzEuODU2MiwyNS45MDk4IEMzMi4zNzQyLDI1LjUzMTggMzEuOTMwMiwyNC45Njg4IDMxLjQwMjIsMjUuMTg5OCBDMjcuODg5MiwyNi42NTM4IDI0LjA3NTIsMjcuMzYyOCAyMC42MDIyLDI3LjM2MjggQzE1LjQ1OTIsMjcuMzYyOCAxMC40NzUyLDI1Ljk3MzggNi40NDYyLDIzLjY2NzggQzYuMDk0MiwyMy40NjU4IDUuODMzMiwyMy44MjI4IDYuMTI3MiwyNC4wODE4IEM5Ljg2MDIsMjcuMzk3OCAxNC43OTYyLDI5LjM5MDggMjAuMjc0MiwyOS4zOTA4IEMyNC4xODQyLDI5LjM5MDggMjguNzI1MiwyOC4xODI4IDMxLjg1NjIsMjUuOTA5OCBMMzEuODU2MiwyNS45MDk4IFogTTI5LjcxMjIsMjAuNjk0OCBDMjkuMjE0MiwyMC42OTQ4IDI4LjcyNzIsMjAuNjQxOCAyOC4yNTMyLDIwLjUzMzggQzI3Ljc3NzIsMjAuNDI0OCAyNy40MTMyLDIwLjMwMTggMjcuMTYwMiwyMC4xNjA4IEMyNy4wMDUyLDIwLjA3NjggMjYuOTA4MiwxOS45ODg4IDI2Ljg2OTIsMTkuOTAyOCBDMjYuODMxMiwxOS44MTQ4IDI2LjgxMTIsMTkuNzI4OCAyNi44MTEyLDE5LjY0MjggTDI2LjgxMTIsMTkuMTczOCBDMjYuODExMiwxOC45Nzk4IDI2Ljg4NDIsMTguODgwOCAyNy4wMjcyLDE4Ljg4MDggQzI3LjA4MjIsMTguODgwOCAyNy4xNDAyLDE4Ljg5MzggMjcuMjAwMiwxOC45MTM4IEMyNy4yNjEyLDE4LjkzNjggMjcuMzQxMiwxOC45Njg4IDI3LjQ0MTIsMTkuMDExOCBDMjcuNzYxMiwxOS4xNTI4IDI4LjEwODIsMTkuMjU5OCAyOC40ODUyLDE5LjMzNTggQzI4Ljg2MTIsMTkuNDEwOCAyOS4yMzYyLDE5LjQ0ODggMjkuNjExMiwxOS40NDg4IEMzMC4yMDgyLDE5LjQ0ODggMzAuNjY5MiwxOS4zNDY4IDMwLjk5NTIsMTkuMTQwOCBDMzEuMzIyMiwxOC45MzY4IDMxLjQ4NDIsMTguNjQ1OCAzMS40ODQyLDE4LjI2NzggQzMxLjQ4NDIsMTguMDA3OCAzMS4zOTkyLDE3Ljc5MjggMzEuMjI3MiwxNy42MTg4IEMzMS4wNTYyLDE3LjQ0NDggMzAuNzM4MiwxNy4yODU4IDMwLjI3NTIsMTcuMTMzOCBMMjguOTAwMiwxNi43MTI4IEMyOC4yMDMyLDE2LjQ5NjggMjcuNjk4MiwxNi4xODM4IDI3LjM4MzIsMTUuNzc0OCBDMjcuMDY4MiwxNS4zNjI4IDI2LjkxMTIsMTQuOTE1OCAyNi45MTEyLDE0LjQyNzggQzI2LjkxMTIsMTQuMDQwOCAyNi45OTYyLDEzLjY5ODggMjcuMTY5MiwxMy40MDA4IEMyNy4zMzkyLDEzLjEwMzggMjcuNTY0MiwxMi44NTA4IDI3Ljg0NTIsMTIuNjM5OCBDMjguMTMwMiwxMi40Mjk4IDI4LjQ1OTIsMTIuMjcxOCAyOC44MzQyLDEyLjE2MTggQzI5LjIwODIsMTIuMDU0OCAyOS42MDYyLDExLjk5OTggMzAuMDI2MiwxMS45OTk4IEMzMC4yMzYyLDExLjk5OTggMzAuNDQ5MiwxMi4wMTM4IDMwLjY2NjIsMTIuMDQwOCBDMzAuODgxMiwxMi4wNjY4IDMxLjA4NTIsMTIuMTAyOCAzMS4yNzgyLDEyLjE0NTggQzMxLjQ3MTIsMTIuMTkwOCAzMS42NTEyLDEyLjIzODggMzEuODE2MiwxMi4yOTE4IEMzMS45ODIyLDEyLjM0NjggMzIuMTE0MiwxMi40MDA4IDMyLjIxNTIsMTIuNDUzOCBDMzIuMzQ2MiwxMi41Mjg4IDMyLjQzOTIsMTIuNjA0OCAzMi40OTYyLDEyLjY4MDggQzMyLjU1MTIsMTIuNzU1OCAzMi41NzkyLDEyLjg1NzggMzIuNTc5MiwxMi45ODg4IEwzMi41NzkyLDEzLjQyNDggQzMyLjU3OTIsMTMuNjE5OCAzMi41MDcyLDEzLjcxNTggMzIuMzYyMiwxMy43MTU4IEMzMi4yODUyLDEzLjcxNTggMzIuMTY1MiwxMy42Nzk4IDMxLjk5ODIsMTMuNjAzOCBDMzEuNDU4MiwxMy4zNjQ4IDMwLjg0ODIsMTMuMjQ3OCAzMC4xNzcyLDEzLjI0NzggQzI5LjYzNTIsMTMuMjQ3OCAyOS4yMTQyLDEzLjMzMzggMjguOTE2MiwxMy41MDU4IEMyOC42MTcyLDEzLjY3OTggMjguNDY4MiwxMy45NTQ4IDI4LjQ2ODIsMTQuMzMyOCBDMjguNDY4MiwxNC41OTA4IDI4LjU2MjIsMTQuODA5OCAyOC43NTEyLDE0Ljk4NzggQzI4LjkzOTIsMTUuMTY1OCAyOS4yODYyLDE1LjMzNTggMjkuNzk1MiwxNS40OTg4IEwzMS4xMzcyLDE1LjkyMDggQzMxLjgyMjIsMTYuMTM0OCAzMi4zMTEyLDE2LjQzMjggMzIuNjAzMiwxNi44MDg4IEMzMi44OTcyLDE3LjE4NzggMzMuMDQ0MiwxNy42MTg4IDMzLjA0NDIsMTguMTAzOCBDMzMuMDQ0MiwxOC41MDQ4IDMyLjk2MTIsMTguODYzOCAzMi43OTQyLDE5LjE4MTggQzMyLjYyODIsMTkuNTAwOCAzMi4zOTkyLDE5Ljc3MTggMzIuMTA1MiwxOS45OTg4IEMzMS44MTMyLDIwLjIyNTggMzEuNDYzMiwyMC4zOTc4IDMxLjA1NDIsMjAuNTE2OCBDMzAuNjQ0MiwyMC42MzY4IDMwLjE5NzIsMjAuNjk0OCAyOS43MTIyLDIwLjY5NDggTDI5LjcxMjIsMjAuNjk0OCBaIE0xNy41NDcyLDIwLjQ1MDggQzE3LjM4MTIsMjAuNDUwOCAxNy4yNjAyLDIwLjQyMzggMTcuMTgyMiwyMC4zNjM4IEMxNy4xMDQyLDIwLjMwMjggMTcuMDM4MiwyMC4xODI4IDE2Ljk4MzIsMTkuOTk4OCBMMTQuNzYxMiwxMi44NDE4IEMxNC43MDgyLDEyLjY1NzggMTQuNjc5MiwxMi41MzQ4IDE0LjY3OTIsMTIuNDcwOCBDMTQuNjc5MiwxMi4zMTk4IDE0Ljc1NzIsMTIuMjQzOCAxNC45MTIyLDEyLjI0MzggTDE1LjgzOTIsMTIuMjQzOCBDMTYuMDE2MiwxMi4yNDM4IDE2LjE0MDIsMTIuMjczOCAxNi4yMTMyLDEyLjMzMzggQzE2LjI4NDIsMTIuMzkxOCAxNi4zNDcyLDEyLjUxMTggMTYuNDAyMiwxMi42OTc4IEwxNy45OTMyLDE4LjgxNzggTDE5LjQ3MDIsMTIuNjk3OCBDMTkuNTE0MiwxMi41MTE4IDE5LjU3NDIsMTIuMzkxOCAxOS42NTEyLDEyLjMzMzggQzE5LjcyODIsMTIuMjczOCAxOS44NTUyLDEyLjI0MzggMjAuMDMxMiwxMi4yNDM4IEwyMC43OTYyLDEyLjI0MzggQzIwLjk3MTIsMTIuMjQzOCAyMS4wOTgyLDEyLjI3MzggMjEuMTc2MiwxMi4zMzM4IEMyMS4yNTMyLDEyLjM5MTggMjEuMzE0MiwxMi41MTE4IDIxLjM1ODIsMTIuNjk3OCBMMjIuODUxMiwxOC44OTg4IEwyNC40OTEyLDEyLjY5NzggQzI0LjU0NjIsMTIuNTExOCAyNC42MDkyLDEyLjM5MTggMjQuNjgxMiwxMi4zMzM4IEMyNC43NTQyLDEyLjI3MzggMjQuODc3MiwxMi4yNDM4IDI1LjA1NDIsMTIuMjQzOCBMMjUuOTMyMiwxMi4yNDM4IEMyNi4wODgyLDEyLjI0MzggMjYuMTY1MiwxMi4zMTk4IDI2LjE2NTIsMTIuNDcwOCBDMjYuMTY1MiwxMi41MTE4IDI2LjE1ODIsMTIuNTYxOCAyNi4xNDkyLDEyLjYxNDggQzI2LjEzNjIsMTIuNjcwOCAyNi4xMTYyLDEyLjc0NTggMjYuMDgxMiwxMi44NDE4IEwyMy43OTUyLDE5Ljk5ODggQzIzLjc0MDIsMjAuMTgyOCAyMy42NzMyLDIwLjMwMjggMjMuNTk1MiwyMC4zNjM4IEMyMy41MTgyLDIwLjQyMzggMjMuMzk2MiwyMC40NTA4IDIzLjIzMTIsMjAuNDUwOCBMMjIuNDE4MiwyMC40NTA4IEMyMi4yNDIyLDIwLjQ1MDggMjIuMTE1MiwyMC40MjA4IDIyLjAzODIsMjAuMzU2OCBDMjEuOTYxMiwyMC4yOTE4IDIxLjkwMDIsMjAuMTY1OCAyMS44NTYyLDE5Ljk4MzggTDIwLjM4MDIsMTQuMDIzOCBMMTguOTIzMiwxOS45ODM4IEMxOC44NzkyLDIwLjE2NTggMTguODE3MiwyMC4yOTE4IDE4Ljc0MDIsMjAuMzU2OCBDMTguNjYyMiwyMC40MjA4IDE4LjUzNjIsMjAuNDUwOCAxOC4zNTkyLDIwLjQ1MDggTDE3LjU0NzIsMjAuNDUwOCBaIE05LjkzOTIsMTkuNDQ4OCBDMTAuMjUwMiwxOS40NDg4IDEwLjU3NTIsMTkuMzkxOCAxMC45MTgyLDE5LjI3ODggQzExLjI2MDIsMTkuMTY0OCAxMS41NTgyLDE4Ljk2ODggMTEuODEyMiwxOC42ODY4IEMxMS45NjgyLDE4LjUxNDggMTIuMDc0MiwxOC4zMTc4IDEyLjEzNjIsMTguMDk1OCBDMTIuMTk2MiwxNy44NzU4IDEyLjIyNTIsMTcuNjA4OCAxMi4yMjUyLDE3LjI5NDggTDEyLjIyNTIsMTYuOTA2OCBDMTEuOTUxMiwxNi44NDE4IDExLjY2MTIsMTYuNzkwOCAxMS4zNTYyLDE2Ljc1MjggQzExLjA1MjIsMTYuNzE1OCAxMC43NTcyLDE2LjY5NTggMTAuNDY5MiwxNi42OTU4IEM5Ljg0MDIsMTYuNjk1OCA5LjM2OTIsMTYuODE5OCA5LjA2MTIsMTcuMDY4OCBDOC43NTIyLDE3LjMxNjggOC41OTYyLDE3LjY3MTggOC41OTYyLDE4LjEzODggQzguNTk2MiwxOC41Njk4IDguNzEzMiwxOC44OTQ4IDguOTQ1MiwxOS4xMTY4IEM5LjE3NzIsMTkuMzM4OCA5LjUwOTIsMTkuNDQ4OCA5LjkzOTIsMTkuNDQ4OCBMOS45MzkyLDE5LjQ0ODggWiBNMTMuNzg1MiwxOC4wNDA4IEMxMy43ODUyLDE4LjM4NTggMTMuODIwMiwxOC42NTk4IDEzLjg5MjIsMTguODY1OCBDMTMuOTY1MiwxOS4wNzE4IDE0LjA2NzIsMTkuMjkzOCAxNC4xOTkyLDE5LjUyOTggQzE0LjI0MzIsMTkuNjA1OCAxNC4yNjUyLDE5LjY3NTggMTQuMjY1MiwxOS43Mzg4IEMxNC4yNjUyLDE5LjgzNzggMTQuMjA0MiwxOS45Mjk4IDE0LjA4MzIsMjAuMDE0OCBMMTMuNDg2MiwyMC40MDQ4IEMxMy4zOTgyLDIwLjQ1NzggMTMuMzE1MiwyMC40ODU4IDEzLjIzODIsMjAuNDg1OCBDMTMuMTM3MiwyMC40ODU4IDEzLjA0NDIsMjAuNDQyOCAxMi45NTYyLDIwLjM1NjggQzEyLjgyMjIsMjAuMjI1OCAxMi43MTAyLDIwLjA4MzggMTIuNjE3MiwxOS45MjY4IEMxMi41MjEyLDE5Ljc3MDggMTIuNDI1MiwxOS41ODc4IDEyLjMyNjIsMTkuMzgyOCBDMTEuNTg1MiwyMC4yMzU4IDEwLjY1ODIsMjAuNjYyOCA5LjU0MjIsMjAuNjYyOCBDOC43NDYyLDIwLjY2MjggOC4xMTYyLDIwLjQ0MjggNy42NTEyLDE5Ljk5ODggQzcuMTg4MiwxOS41NTY4IDYuOTU2MiwxOC45NjI4IDYuOTU2MiwxOC4yMTg4IEM2Ljk1NjIsMTcuNDMxOCA3LjI0MzIsMTYuNzk1OCA3LjgxOTIsMTYuMzE1OCBDOC4zOTIyLDE1LjgzNTggOS4xNjcyLDE1LjU5NDggMTAuMTM4MiwxNS41OTQ4IEMxMC40NTkyLDE1LjU5NDggMTAuNzkzMiwxNS42MTk4IDExLjE0MTIsMTUuNjY3OCBDMTEuNDg4MiwxNS43MTU4IDExLjg1MTIsMTUuNzg0OCAxMi4yMjUyLDE1Ljg3MDggTDEyLjIyNTIsMTUuMTkxOCBDMTIuMjI1MiwxNC40ODk4IDEyLjA3ODIsMTMuOTk1OCAxMS43NzkyLDEzLjcwODggQzExLjQ4MTIsMTMuNDIyOCAxMC45NjgyLDEzLjI4MDggMTAuMjM5MiwxMy4yODA4IEM5LjkwNjIsMTMuMjgwOCA5LjU2NjIsMTMuMzE5OCA5LjIxODIsMTMuNDAwOCBDOC44NzEyLDEzLjQ4MTggOC41MzAyLDEzLjU4NjggOC4xOTkyLDEzLjcxNTggQzguMDQ0MiwxMy43ODA4IDcuOTMzMiwxMy44MjE4IDcuODY4MiwxMy44Mzc4IEM3LjgwMjIsMTMuODUzOCA3Ljc1MjIsMTMuODYxOCA3LjcxOTIsMTMuODYxOCBDNy41ODcyLDEzLjg2MTggNy41MTkyLDEzLjc2NTggNy41MTkyLDEzLjU2OTggTDcuNTE5MiwxMy4xMTc4IEM3LjUxOTIsMTIuOTY1OCA3LjU0MzIsMTIuODU3OCA3LjU4NzIsMTIuNzk0OCBDNy42MzEyLDEyLjcyODggNy43MTkyLDEyLjY2MzggNy44NTIyLDEyLjU5OTggQzguMTgzMiwxMi40MzY4IDguNTgxMiwxMi4yOTY4IDkuMDQ0MiwxMi4xNzg4IEM5LjUwOTIsMTIuMDU5OCAxMC4wMDAyLDExLjk5OTggMTAuNTIwMiwxMS45OTk4IEMxMS42NDYyLDExLjk5OTggMTIuNDcyMiwxMi4yNTI4IDEyLjk5NzIsMTIuNzUyOCBDMTMuNTIxMiwxMy4yNTQ4IDEzLjc4NTIsMTQuMDEyOCAxMy43ODUyLDE1LjAyNzggTDEzLjc4NTIsMTguMDQwOCBaIi8+JiN4YTsgICAgPC9nPiYjeGE7PC9zdmc+;imageBorder=none;" vertex="1" parent="1">
          <mxGeometry x="80" y="40" width="40" height="40" as="geometry" />
        </mxCell>
        <mxCell id="xotWHUOHVs64-DjdIuKV-5" value="" style="shape=image;verticalLabelPosition=bottom;labelBackgroundColor=default;verticalAlign=top;aspect=fixed;imageAspect=0;image=data:image/svg+xml,PHN2ZyB4bWxuczp4bGluaz0iaHR0cDovL3d3dy53My5vcmcvMTk5OS94bGluayIgeG1sbnM9Imh0dHA6Ly93d3cudzMub3JnLzIwMDAvc3ZnIiB2ZXJzaW9uPSIxLjEiIHZpZXdCb3g9IjAgMCA0MCA0MCIgaGVpZ2h0PSI0MHB4IiB3aWR0aD0iNDBweCI+JiN4YTsgICAgPHRpdGxlPkljb24tQXJjaGl0ZWN0dXJlLUdyb3VwLzMyL1JlZ2lvbl8zMjwvdGl0bGU+JiN4YTsgICAgPGcgZmlsbC1ydWxlPSJldmVub2RkIiBmaWxsPSJub25lIiBzdHJva2Utd2lkdGg9IjEiIHN0cm9rZT0ibm9uZSIgaWQ9Ikljb24tQXJjaGl0ZWN0dXJlLUdyb3VwLzMyL1JlZ2lvbl8zMiI+JiN4YTsgICAgICAgIDxyZWN0IGhlaWdodD0iNDAiIHdpZHRoPSI0MCIgeT0iMCIgeD0iMCIgZmlsbD0iIzAwQTRBNiIgaWQ9IlJlY3RhbmdsZSIvPiYjeGE7ICAgICAgICA8cGF0aCBmaWxsPSIjRkZGRkZGIiBpZD0iRmlsbC0xIiBkPSJNMTQsMjAuMDI2IEwxNCwxMS4wMjYgTDI5LjI5MywxMS4wMjYgTDI1LjE0NiwxNS4xNzIgQzI0Ljk1MSwxNS4zNjggMjQuOTUxLDE1LjY4NCAyNS4xNDYsMTUuODggTDI5LjI5MywyMC4wMjYgTDE0LDIwLjAyNiBaIE0yNi4yMDcsMTUuNTI2IEwzMC44NTQsMTAuODggQzMwLjk5NiwxMC43MzYgMzEuMDM5LDEwLjUyMiAzMC45NjIsMTAuMzM1IEMzMC44ODUsMTAuMTQ4IDMwLjcwMiwxMC4wMjYgMzAuNSwxMC4wMjYgTDE0LDEwLjAyNiBMMTQsOC45NyBDMTQuNTk2LDguNzYgMTUuMDI2LDguMTk4IDE1LjAyNiw3LjUzMSBDMTUuMDI2LDYuNjg3IDE0LjM0LDYgMTMuNDk1LDYgQzEyLjY1LDYgMTEuOTYzLDYuNjg3IDExLjk2Myw3LjUzMSBDMTEuOTYzLDguMjAxIDEyLjM5OCw4Ljc2NiAxMyw4Ljk3MyBMMTMsMzMuMDI2IEwxMCwzMy4wMjYgTDEwLDM0LjAyNiBMMTcsMzQuMDI2IEwxNywzMy4wMjYgTDE0LDMzLjAyNiBMMTQsMjEuMDI2IEwzMC41LDIxLjAyNiBDMzAuNzAyLDIxLjAyNiAzMC44ODUsMjAuOTA0IDMwLjk2MiwyMC43MTcgQzMxLjAzOSwyMC41MyAzMC45OTYsMjAuMzE2IDMwLjg1NCwyMC4xNzIgTDI2LjIwNywxNS41MjYgWiIvPiYjeGE7ICAgIDwvZz4mI3hhOzwvc3ZnPg==;" vertex="1" parent="1">
          <mxGeometry x="180" y="90" width="40" height="40" as="geometry" />
        </mxCell>
        <mxCell id="xotWHUOHVs64-DjdIuKV-7" value="&lt;font color=&quot;#ffffff&quot;&gt;ap-southeast-1&lt;/font&gt;" style="text;html=1;align=left;verticalAlign=middle;whiteSpace=wrap;rounded=0;spacingLeft=10;" vertex="1" parent="1">
          <mxGeometry x="220" y="90" width="120" height="40" as="geometry" />
        </mxCell>
        <mxCell id="xotWHUOHVs64-DjdIuKV-9" value="&lt;font color=&quot;#ffffff&quot;&gt;ap-southeast-1a&lt;/font&gt;" style="text;html=1;align=center;verticalAlign=middle;whiteSpace=wrap;rounded=0;" vertex="1" parent="1">
          <mxGeometry x="410" y="100" width="120" height="40" as="geometry" />
        </mxCell>
        <mxCell id="xotWHUOHVs64-DjdIuKV-16" value="" style="rounded=0;whiteSpace=wrap;html=1;fillColor=none;strokeColor=#9D71F9;" vertex="1" parent="1">
          <mxGeometry x="230" y="140" width="1040" height="560" as="geometry" />
        </mxCell>
        <mxCell id="xotWHUOHVs64-DjdIuKV-15" value="" style="shape=image;verticalLabelPosition=bottom;labelBackgroundColor=default;verticalAlign=top;aspect=fixed;imageAspect=0;image=data:image/svg+xml,PHN2ZyB4bWxuczp4bGluaz0iaHR0cDovL3d3dy53My5vcmcvMTk5OS94bGluayIgeG1sbnM9Imh0dHA6Ly93d3cudzMub3JnLzIwMDAvc3ZnIiB2ZXJzaW9uPSIxLjEiIHZpZXdCb3g9IjAgMCA0MCA0MCIgaGVpZ2h0PSI0MHB4IiB3aWR0aD0iNDBweCI+JiN4YTsgICAgPHRpdGxlPkljb24tQXJjaGl0ZWN0dXJlLUdyb3VwLzMyL1ZpcnR1YWwtcHJpdmF0ZS1jbG91ZC1WUENfMzI8L3RpdGxlPiYjeGE7ICAgIDxnIGZpbGwtcnVsZT0iZXZlbm9kZCIgZmlsbD0ibm9uZSIgc3Ryb2tlLXdpZHRoPSIxIiBzdHJva2U9Im5vbmUiIGlkPSJJY29uLUFyY2hpdGVjdHVyZS1Hcm91cC8zMi9WaXJ0dWFsLXByaXZhdGUtY2xvdWQtVlBDXzMyIj4mI3hhOyAgICAgICAgPHJlY3QgaGVpZ2h0PSI0MCIgd2lkdGg9IjQwIiB5PSIwIiB4PSIwIiBmaWxsPSIjOEM0RkZGIiBpZD0iUmVjdGFuZ2xlIi8+JiN4YTsgICAgICAgIDxwYXRoIGZpbGw9IiNGRkZGRkYiIGlkPSJGaWxsLTEiIGQ9Ik0zMC45NzA3LDIxLjAyOTM1OTYgTDI4LjAyNjcsMTkuNzY2MzU5NiBMMjguMDI2NywzMC4yNTUzNTk2IEMzMC41NzE3LDI5LjkwMzM1OTYgMzAuOTU4NywyNy4yODczNTk2IDMwLjk3NDcsMjcuMTY4MzU5NiBMMzAuOTcwNywyMS4wMjkzNTk2IFogTTI3LjAyNjcsMzAuMjY5MzU5NiBMMjcuMDI2NywxOS43NTkzNTk2IEwyMy45OTE3LDIxLjAzMjM1OTYgTDIzLjk5MTcsMjcuMjMzMzU5NiBDMjQuMDA0NywyNy4yODczNTk2IDI0LjQzNjcsMzAuMDAwMzU5NiAyNy4wMjY3LDMwLjI2OTM1OTYgTDI3LjAyNjcsMzAuMjY5MzU5NiBaIE0yNy4zMzI3LDE4LjU0NzM1OTYgQzI3LjQ1NjcsMTguNDk0MzU5NiAyNy41OTg3LDE4LjQ5NTM1OTYgMjcuNzIzNywxOC41NDgzNTk2IEwzMS42Njc3LDIwLjI0MDM1OTYgQzMxLjg1MTcsMjAuMzE5MzU5NiAzMS45NzA3LDIwLjQ5OTM1OTYgMzEuOTcwNywyMC42OTkzNTk2IEwzMS45NzA3LDI3LjIzMzM1OTYgQzMxLjc4NzcsMjguNjgwMzU5NiAzMC42MTM3LDMxLjI5NjM1OTYgMjcuNDQzNywzMS4yOTYzNTk2IEMyNC4zNjg3LDMxLjI5NjM1OTYgMjMuMTg5NywyOC42ODQzNTk2IDIyLjk5NTcsMjcuMzAyMzU5NiBMMjIuOTkxNywyMC42OTkzNTk2IEMyMi45OTE3LDIwLjQ5ODM1OTYgMjMuMTEyNywyMC4zMTYzNTk2IDIzLjI5NzcsMjAuMjM4MzU5NiBMMjcuMzMyNywxOC41NDczNTk2IFogTTMyLjk4MjcwMjIsMTkuMTg0MzU5NiBMMjcuNTIxNywxNi43NzgzNTk2IEwyMS45OTE3LDE5LjEwNTM1OTYgTDIxLjk5MTcsMjYuMjMzMzU5NiBDMjEuOTkwNywyNi4yNzUzNTk2IDIxLjkzNzcsMjkuMTAxMzU5NiAyMy42NDg3LDMwLjg1NjM1OTYgQzI0LjU2NTcsMzEuNzk3MzU5NiAyNS44NDI3LDMyLjI3NTM1OTYgMjcuNDQzNywzMi4yNzUzNTk2IEMyOS4wNDU3LDMyLjI3NTM1OTYgMzAuMzMwNywzMS43OTYzNTk2IDMxLjI2MjcsMzAuODUzMzU5NiBDMzIuOTk3NywyOS4wOTUzNTk2IDMyLjk4MjcwMjIsMjYuMjY4MzU5NiAzMi45ODI3MDIyLDI2LjI0MDM1OTYgTDMyLjk4MjcwMjIsMTkuMTg0MzU5NiBaIE0zMS45Nzk3LDMxLjU1MDM1OTYgQzMwLjg1MjcsMzIuNjk0MzU5NiAyOS4zMjU3LDMzLjI3NTM1OTYgMjcuNDQzNywzMy4yNzUzNTk2IEMyNS41NTk3LDMzLjI3NTM1OTYgMjQuMDM5NywzMi42OTQzNTk2IDIyLjkyNjcsMzEuNTQ4MzU5NiBDMjAuOTIxNywyOS40ODUzNTk2IDIwLjk4NzcsMjYuMzUxMzU5NiAyMC45OTE3LDI2LjIxOTM1OTYgTDIwLjk5MTcsMTguNzczMzU5NiBDMjAuOTkxNywxOC41NzIzNTk2IDIxLjExMTcsMTguMzkwMzU5NiAyMS4yOTY3LDE4LjMxMjM1OTYgTDI3LjMzMTcsMTUuNzcyMzU5NiBDMjcuNDU4NywxNS43MjAzNTk2IDI3LjYwMjcsMTUuNzE5MzU5NiAyNy43Mjc3LDE1Ljc3NjM1OTYgTDMzLjY4MzcsMTguNDAxMzU5NiBDMzMuODY1NywxOC40ODEzNTk2IDMzLjk4MjcsMTguNjYwMzU5NiAzMy45ODI3LDE4Ljg1ODM1OTYgTDMzLjk4MjcsMjYuMjMzMzU5NiBDMzMuOTg0NywyNi4zNTgzNTk2IDM0LjAwOTcsMjkuNDg4MzU5NiAzMS45Nzk3LDMxLjU1MDM1OTYgTDMxLjk3OTcsMzEuNTUwMzU5NiBaIE0xMC45OTE3LDI0LjIzNjM1OTYgTDE4Ljk5MTcsMjQuMjM2MzU5NiBMMTguOTkxNywyNS4yMzYzNTk2IEwxMC45OTE3LDI1LjIzNjM1OTYgQzguMTgwNywyNS4yMzYzNTk2IDYuMTgwNywyMy4yMjAzNTk2IDYuMDEyNywyMC4yMjAzNTk2IEM2LjAwMDcsMjAuMTA5MzU5NiA1Ljk5OTcsMTkuOTc1MzU5NiA1Ljk5OTcsMTkuODQxMzU5NiBDNS45OTk3LDE3LjMzMjM1OTYgNy4zMTc3LDE1LjYxODM1OTYgOS44MTY3LDE0Ljg2MjM1OTYgQzkuNzk3NywxNC42MzUzNTk2IDkuNzg0NywxNC4zOTYzNTk2IDkuNzg0NywxNC4yMTUzNTk2IEM5Ljc4NDcsMTEuMjk5MzU5NiAxMS4zNjE3LDguNzcwMzU5NTggMTMuODAxNyw3Ljc3MDM1OTU4IEMxNy4wOTk3LDYuNDIyMzU5NTggMjAuODQzNyw2Ljg3NjM1OTU4IDIyLjkwNzcsOC44NzQzNTk1OCBDMjMuNjUyNyw5LjU5ODM1OTU4IDI0LjIzMTcsMTAuNDE2MzU5NiAyNC42Njc3LDExLjM1OTM1OTYgQzI1LjI3NjcsMTAuOTA5MzU5NiAyNi4wNjc3LDEwLjY5ODM1OTYgMjcuMDE2NywxMC43NDUzNTk2IEMyOC43OTY3LDEwLjgzNTM1OTYgMzAuMTY1NywxMi40NTgzNTk2IDMwLjQ0OTcsMTQuNzUyMzU5NiBDMzEuOTQ3NywxNC44NzYzNTk2IDMyLjkzNDcsMTUuNjM1MzU5NiAzMy40NTk3LDE3LjA2MDM1OTYgTDMyLjUyMjcsMTcuNDA2MzU5NiBDMzIuMDk0NywxNi4yNDkzNTk2IDMxLjMxNDcsMTUuNzMzMzU5NiAyOS45OTE3LDE1LjczMzM1OTYgQzI5LjcyNjcsMTUuNzMzMzU5NiAyOS41MDc3LDE1LjUyNzM1OTYgMjkuNDkxNywxNS4yNjMzNTk2IEMyOS4zNTM3LDEyLjkyNTM1OTYgMjguMDg1NywxMS44MDAzNTk2IDI2Ljk2NTcsMTEuNzQ0MzU5NiBDMjYuMDIwNywxMS42OTEzNTk2IDI1LjMyMDcsMTEuOTYzMzU5NiAyNC44ODY3LDEyLjUzNTM1OTYgQzI0Ljc3NTcsMTIuNjgwMzU5NiAyNC42MDE3LDEyLjc1MjM1OTYgMjQuNDEzNywxMi43MjgzNTk2IEMyNC4yMzM3LDEyLjcwMDM1OTYgMjQuMDgxNywxMi41NzczNTk2IDI0LjAxODcsMTIuNDA1MzU5NiBDMjMuNjE0NywxMS4zMDIzNTk2IDIzLjAyMzcsMTAuMzgyMzU5NiAyMi4yMTE3LDkuNTkxMzU5NTggQzIwLjQyMzcsNy44NjEzNTk1OCAxNy4xMjE3LDcuNDkyMzU5NTggMTQuMTgwNyw4LjY5NjM1OTU4IEMxMi4xMTc3LDkuNTQxMzU5NTggMTAuNzg0NywxMS43MDczNTk2IDEwLjc4NDcsMTQuMjE1MzU5NiBDMTAuNzg0NywxNC40ODgzNTk2IDEwLjgxOTcsMTQuOTExMzU5NiAxMC44NTA3LDE1LjE3NDM1OTYgQzEwLjg4MDcsMTUuNDI1MzU5NiAxMC43MTk3LDE1LjY1ODM1OTYgMTAuNDc0NywxNS43MTgzNTk2IEM4LjE2ODcsMTYuMjkwMzU5NiA2Ljk5OTcsMTcuNjc3MzU5NiA2Ljk5OTcsMTkuODQxMzU5NiBDNi45OTk3LDE5Ljk0MjM1OTYgNi45OTg3LDIwLjA0MjM1OTYgNy4wMDg3LDIwLjE0MzM1OTYgQzcuMTQ5NywyMi42MzgzNTk2IDguNzExNywyNC4yMzYzNTk2IDEwLjk5MTcsMjQuMjM2MzU5NiBMMTAuOTkxNywyNC4yMzYzNTk2IFoiLz4mI3hhOyAgICA8L2c+JiN4YTs8L3N2Zz4=;" vertex="1" parent="1">
          <mxGeometry x="230" y="140" width="40" height="40" as="geometry" />
        </mxCell>
        <mxCell id="xotWHUOHVs64-DjdIuKV-17" value="&lt;font color=&quot;#ffffff&quot;&gt;monitoring-vpc&lt;/font&gt;" style="text;html=1;align=left;verticalAlign=middle;whiteSpace=wrap;rounded=0;spacingLeft=10;" vertex="1" parent="1">
          <mxGeometry x="270" y="140" width="120" height="40" as="geometry" />
        </mxCell>
        <mxCell id="xotWHUOHVs64-DjdIuKV-8" value="" style="rounded=0;whiteSpace=wrap;html=1;strokeColor=#22A3C4;fillColor=none;dashed=1;dashPattern=8 8;" vertex="1" parent="1">
          <mxGeometry x="330" y="100" width="280" height="610" as="geometry" />
        </mxCell>
        <mxCell id="xotWHUOHVs64-DjdIuKV-24" value="" style="rounded=0;whiteSpace=wrap;html=1;strokeColor=none;fillColor=#232F3C;" vertex="1" parent="1">
          <mxGeometry x="207" y="330" width="48" height="48" as="geometry" />
        </mxCell>
        <mxCell id="xotWHUOHVs64-DjdIuKV-31" style="edgeStyle=orthogonalEdgeStyle;rounded=0;orthogonalLoop=1;jettySize=auto;html=1;exitX=0;exitY=0.5;exitDx=0;exitDy=0;entryX=1;entryY=0.5;entryDx=0;entryDy=0;strokeColor=#FFFFFF;dashed=1;dashPattern=8 8;endArrow=none;endFill=0;flowAnimation=1;" edge="1" parent="1" source="xotWHUOHVs64-DjdIuKV-22" target="xotWHUOHVs64-DjdIuKV-30">
          <mxGeometry relative="1" as="geometry" />
        </mxCell>
        <mxCell id="xotWHUOHVs64-DjdIuKV-22" value="" style="shape=image;verticalLabelPosition=bottom;labelBackgroundColor=default;verticalAlign=top;aspect=fixed;imageAspect=0;image=data:image/svg+xml,PHN2ZyB4bWxuczp4bGluaz0iaHR0cDovL3d3dy53My5vcmcvMTk5OS94bGluayIgeG1sbnM9Imh0dHA6Ly93d3cudzMub3JnLzIwMDAvc3ZnIiB2ZXJzaW9uPSIxLjEiIHZpZXdCb3g9IjAgMCA0OCA0OCIgaGVpZ2h0PSI0OHB4IiB3aWR0aD0iNDhweCI+JiN4YTsgICAgPHRpdGxlPkljb24tUmVzb3VyY2UvTmV0d29ya2luZy1hbmQtQ29udGVudC1EZWxpdmVyeS9SZXNfQW1hem9uLVZQQ19JbnRlcm5ldC1HYXRld2F5XzQ4PC90aXRsZT4mI3hhOyAgICA8ZyBmaWxsLXJ1bGU9ImV2ZW5vZGQiIGZpbGw9Im5vbmUiIHN0cm9rZS13aWR0aD0iMSIgc3Ryb2tlPSJub25lIiBpZD0iSWNvbi1SZXNvdXJjZS9OZXR3b3JraW5nLWFuZC1Db250ZW50LURlbGl2ZXJ5L1Jlc19BbWF6b24tVlBDX0ludGVybmV0LUdhdGV3YXlfNDgiPiYjeGE7ICAgICAgICA8cGF0aCBmaWxsPSIjOEM0RkZGIiBpZD0iQVdTLUFtYXpvbi1WUENfSW50ZXJuZXQtZ2F0ZXdheV9SZXNvdXJjZS1JY29uX2xpZ2h0LWJnIiBkPSJNMzMuNDMxMiwzNS4xNzc4IEwzMS45MzMyLDM1LjE3NzggTDMxLjkzMzIsMTcuNTAxOCBDMzEuOTMzMiwxNy4xMDg4IDMxLjcwMjIsMTYuNzUxOCAzMS4zNDQyLDE2LjU5MDggTDMxLjI1MjIsMTYuNTQ4OCBDMjkuMjQzMiwxNS42NDE4IDI3LjE2NDIsMTQuNzAyOCAyNC4xNzYyLDE0LjcwMjggQzIxLjA1MzIsMTQuNzAyOCAxOC43NjEyLDE1LjcxMTggMTYuNDk1MiwxNi44MzY4IEMxNi4xNTUyLDE3LjAwNTggMTUuOTQwMiwxNy4zNTI4IDE1Ljk0MDIsMTcuNzMyOCBMMTUuOTQwMiwzNS4xNzc4IEwxNC40NzcyLDM1LjE3NzggTDE0LjQ3NzIsMTYuMzExOCBDMTYuOTExMiwxNC4zMzI4IDIwLjQyMDIsMTMuMjA0OCAyNC4xODYyLDEzLjIwNDggQzI3LjY4NzIsMTMuMjA0OCAzMS4wMjUyLDE0LjIwMTggMzMuNDMxMiwxNS45NTI4IEwzMy40MzEyLDM1LjE3NzggWiBNMjQuMTg2MiwxMS4yMDQ4IEMxOS43NjEyLDExLjIwNDggMTUuNjE3MiwxMi42MjM4IDEyLjgxNTIsMTUuMDk5OCBDMTIuNjAwMiwxNS4yODg4IDEyLjQ3NzIsMTUuNTYxOCAxMi40NzcyLDE1Ljg0ODggTDEyLjQ3NzIsMzYuMTc3OCBDMTIuNDc3MiwzNi43MzA4IDEyLjkyNDIsMzcuMTc3OCAxMy40NzcyLDM3LjE3NzggTDE2Ljk0MDIsMzcuMTc3OCBDMTcuNDkzMiwzNy4xNzc4IDE3Ljk0MDIsMzYuNzMwOCAxNy45NDAyLDM2LjE3NzggTDE3Ljk0MDIsMTguMzU1OCBDMTkuODU5MiwxNy40Mjg4IDIxLjcxOTIsMTYuNzAyOCAyNC4xNzYyLDE2LjcwMjggQzI2LjUxMTIsMTYuNzAyOCAyOC4yMDkyLDE3LjM3NzggMjkuOTMzMiwxOC4xNDg4IEwyOS45MzMyLDM2LjE3NzggQzI5LjkzMzIsMzYuNzMwOCAzMC4zODAyLDM3LjE3NzggMzAuOTMzMiwzNy4xNzc4IEwzNC40MzEyLDM3LjE3NzggQzM0Ljk4NDIsMzcuMTc3OCAzNS40MzEyLDM2LjczMDggMzUuNDMxMiwzNi4xNzc4IEwzNS40MzEyLDE1LjQ1NzggQzM1LjQzMTIsMTUuMTUzOCAzNS4yOTIyLDE0Ljg2NTggMzUuMDUzMiwxNC42NzQ4IEMzMi4yNzkyLDEyLjQ2OTggMjguMzE4MiwxMS4yMDQ4IDI0LjE4NjIsMTEuMjA0OCBMMjQuMTg2MiwxMS4yMDQ4IFogTTIzLjk1NDIsNDMuOTA4OCBDMTIuOTUyMiw0My45MDg4IDMuOTk5MiwzNC45NTY4IDMuOTk5MiwyMy45NTM4IEMzLjk5OTIsMTIuOTUwOCAxMi45NTIyLDMuOTk5OCAyMy45NTQyLDMuOTk5OCBDMzQuOTU3MiwzLjk5OTggNDMuOTA5MiwxMi45NTA4IDQzLjkwOTIsMjMuOTUzOCBDNDMuOTA5MiwzNC45NTY4IDM0Ljk1NzIsNDMuOTA4OCAyMy45NTQyLDQzLjkwODggTDIzLjk1NDIsNDMuOTA4OCBaIE0yMy45NTQyLDEuOTk5OCBDMTEuODQ4MiwxLjk5OTggMS45OTkyLDExLjg0ODggMS45OTkyLDIzLjk1MzggQzEuOTk5MiwzNi4wNjA4IDExLjg0ODIsNDUuOTA4OCAyMy45NTQyLDQ1LjkwODggQzM2LjA2MDIsNDUuOTA4OCA0NS45MDkyLDM2LjA2MDggNDUuOTA5MiwyMy45NTM4IEM0NS45MDkyLDExLjg0ODggMzYuMDYwMiwxLjk5OTggMjMuOTU0MiwxLjk5OTggTDIzLjk1NDIsMS45OTk4IFoiLz4mI3hhOyAgICA8L2c+JiN4YTs8L3N2Zz4=;" vertex="1" parent="1">
          <mxGeometry x="207" y="330" width="48" height="48" as="geometry" />
        </mxCell>
        <mxCell id="xotWHUOHVs64-DjdIuKV-30" value="" style="shape=image;verticalLabelPosition=bottom;labelBackgroundColor=default;verticalAlign=top;aspect=fixed;imageAspect=0;image=data:image/png,iVBORw0KGgoAAAANSUhEUgAAADAAAAAwCAYAAABXAvmHAAAAAXNSR0IArs4c6QAAAERlWElmTU0AKgAAAAgAAYdpAAQAAAABAAAAGgAAAAAAA6ABAAMAAAABAAEAAKACAAQAAAABAAAAMKADAAQAAAABAAAAMAAAAADbN2wMAAAEYklEQVRoBe2YWYhNcRzHXdtYi5kHDFL2yDDFA1nerBFTQimFRIMXJSlNlFKWPAhPkrJkyZZQ40EeJVvKPpaSMJMYJuvx+Z75/497z3rnupiH86vP/f//v+2/nXP+59w2bVJJVyBdgXQF0hVIVyBdgf+3AplCu3YcpxexVTAVKkDtDvAG7sMVOJLJZF5Qth5h4KWwF75AknzH4RD0aBUzYCDj4CVIfsJ5WAZDoTN0gHKYB8fhB0iew6T/OgkGMAzegeQ2jE8aED4j4CxItBvVSTF/xU7HfaAOJKegfUs6wn89aMe0I7pv/q3Q6QmQXINOhfRO3CYlQD5Auc1BvSt0t+2ilyQfCVq9T6AnTUFCbAZOg+QYrIH7ahh5RFkNepIVT0h41HSw80+zkmcgfDP5bNFERVi5QKWgXQ6Mj0R6suhxqR3oHXAoQEGegyB5C3OhHWh3ZsMrkOwoIHUwhEQT3XSO8yxoLUxDvt6wG4b7M6AbDXpaadH6+u0tbpNkAUguxAVj7wclcT752shzEiTL8olpG+VEgnbYxhl7Q4zfYmzP4A4x3tMlyl96/CaJCJ+rRr8Wn4XQNcIvWk3QIngAVvaHeWNUB9pyK4pJnIR1jsipyyj7RtfhuQE6hvkHdDhuASs3qGglAquAbj5kD56mK7GTwEM3rCuBzo0Co55Wq+Cm69j8o7EMiopx9TjoxJQ0wsooZ2xVYFfpInWJXi/UiSRyEtgSJ5DdL/7T4DFI6mFott2rYygDnZKS+Z7BV8E2B77KCdkKk92a41yl7An5TMIN8aWObOLcA3Q+SHTgdQk4o7SXzuGA0Sjw0TNbKy3ZJjWlNwHTLkVnJ7HRhHoFthbtgA0kTmfSXZCstnqvRFnrmhxniqcMqeDTC9ZZE/WcCUiPTpPwfKyvLbG5Ytv5lgTNNqHXAzEYXhhjWcAYoyAmMIEYd9dk+nGS/Px24rQLkvfWln0O2Be1JmssVkmHiW+b+ASedCH96xNYE++Gv/s5nD0Be1gNDAksWEVHEwmuo5wVlQRbJbYnlEnfCsPw08Ab+NZ2dzB7ArdMB2NNWaxiBol0WZ5igNP9Sc3ga9HrCljot/vao0zbjvW3mURLQKI73d2e39boGr6J9wA+enmT6LV5qltr/qmkqDdtfStEfgtgKwH7drA2MCKMekQ+BElNwCFCgW/iBBSK3x4lRj43F+5vXoM38dtN3BvK8PsFg049e8LqXNALXazgk+8E9PzfD35JWvkBBJwzQfqmzrkMcz7OuTEu47CcER+ATVBF+zRlPfgfe2oHDj3TwZAI/z3o1ad9VT5DXefFcuIoPNEl3B8mgN5a1dYYljLGS5TxQrIpUAdJUoFDzg7Q1v9BUbICQ1uoAV0S+h9Jux4n+hY/CKFvuTk7YKfFLPVeM5j2TBgDpeC/sdV+B42wC56CRCv0GsL875H7J7bN4Ar9vKSyzzRtoe3QX5R3oJaYj9aQlukKpCuQrkC6AukKpCvQmlbgF1F2i7DdOQagAAAAAElFTkSuQmCC;" vertex="1" parent="1">
          <mxGeometry x="100" y="330" width="48" height="48" as="geometry" />
        </mxCell>
        <mxCell id="xotWHUOHVs64-DjdIuKV-60" style="edgeStyle=orthogonalEdgeStyle;rounded=0;orthogonalLoop=1;jettySize=auto;html=1;entryX=1;entryY=0.5;entryDx=0;entryDy=0;dashed=1;dashPattern=8 8;endArrow=none;endFill=0;strokeColor=#70AB4A;flowAnimation=1;" edge="1" parent="1" source="xotWHUOHVs64-DjdIuKV-19" target="xotWHUOHVs64-DjdIuKV-22">
          <mxGeometry relative="1" as="geometry">
            <Array as="points">
              <mxPoint x="470" y="354" />
            </Array>
          </mxGeometry>
        </mxCell>
        <mxCell id="xotWHUOHVs64-DjdIuKV-19" value="" style="rounded=0;whiteSpace=wrap;html=1;fillColor=#3B4C59;strokeColor=#70ab4a;fontStyle=1" vertex="1" parent="1">
          <mxGeometry x="340" y="190" width="260" height="120" as="geometry" />
        </mxCell>
        <mxCell id="xotWHUOHVs64-DjdIuKV-18" value="" style="shape=image;verticalLabelPosition=bottom;labelBackgroundColor=default;verticalAlign=top;aspect=fixed;imageAspect=0;image=data:image/svg+xml,PHN2ZyB4bWxuczp4bGluaz0iaHR0cDovL3d3dy53My5vcmcvMTk5OS94bGluayIgeG1sbnM9Imh0dHA6Ly93d3cudzMub3JnLzIwMDAvc3ZnIiB2ZXJzaW9uPSIxLjEiIHZpZXdCb3g9IjAgMCA0MCA0MCIgaGVpZ2h0PSI0MHB4IiB3aWR0aD0iNDBweCI+JiN4YTsgICAgPHRpdGxlPkljb24tQXJjaGl0ZWN0dXJlLUdyb3VwLzMyL1B1YmxpYy1zdWJuZXRfMzI8L3RpdGxlPiYjeGE7ICAgIDxnIGZpbGwtcnVsZT0iZXZlbm9kZCIgZmlsbD0ibm9uZSIgc3Ryb2tlLXdpZHRoPSIxIiBzdHJva2U9Im5vbmUiIGlkPSJJY29uLUFyY2hpdGVjdHVyZS1Hcm91cC8zMi9QdWJsaWMtc3VibmV0XzMyIj4mI3hhOyAgICAgICAgPHJlY3QgaGVpZ2h0PSI0MCIgd2lkdGg9IjQwIiB5PSIwIiB4PSIwIiBmaWxsPSIjN0FBMTE2IiBpZD0iUmVjdGFuZ2xlIi8+JiN4YTsgICAgICAgIDxwYXRoIGZpbGw9IiNGRkZGRkYiIGlkPSJGaWxsLTEiIGQ9Ik0xOS41MzYsMjIuMDQ5IEMyMC42NDIsMjIuMDQ5IDIxLjU0MiwyMi45NDggMjEuNTQyLDI0LjA1NCBDMjEuNTQyLDI1LjE2IDIwLjY0MiwyNi4wNiAxOS41MzYsMjYuMDYgQzE4LjQzLDI2LjA2IDE3LjUzLDI1LjE2IDE3LjUzLDI0LjA1NCBDMTcuNTMsMjIuOTQ4IDE4LjQzLDIyLjA0OSAxOS41MzYsMjIuMDQ5IEwxOS41MzYsMjIuMDQ5IFogTTE5LjAxMiwyNy4wMDcgTDE5LjAxMiwzMC41MDEgTDIwLjAxMiwzMC41MDEgTDIwLjAxMiwyNy4wMTIgQzIxLjQ0MiwyNi43ODIgMjIuNTQyLDI1LjU0OSAyMi41NDIsMjQuMDU0IEMyMi41NDIsMjIuMzk3IDIxLjE5MywyMS4wNDkgMTkuNTM2LDIxLjA0OSBDMTcuODc5LDIxLjA0OSAxNi41MywyMi4zOTcgMTYuNTMsMjQuMDU0IEMxNi41MywyNS41MzIgMTcuNjA0LDI2Ljc1NyAxOS4wMTIsMjcuMDA3IEwxOS4wMTIsMjcuMDA3IFogTTEwLDMzLjAxNCBMMjkuMDEyLDMzLjAxNCBMMjkuMDEyLDE4IEwxMCwxOCBMMTAsMzMuMDE0IFogTTE0LjA0NiwxMi40ODQgQzE0LjA0Niw5LjQ2IDE2LjUwNiw3IDE5LjUyOSw3IEMyMi41NTMsNyAyNS4wMTIsOS40NiAyNS4wMTIsMTIuNDg0IEwyNS4wMTIsMTcgTDE0LjA0NiwxNyBMMTQuMDQ2LDEyLjQ4NCBaIE0yOS41MTIsMTcgTDI2LjAxMiwxNyBMMjYuMDEyLDEyLjQ4NCBDMjYuMDEyLDguOTA4IDIzLjEwMyw2IDE5LjUyOSw2IEMxNS45NTQsNiAxMy4wNDYsOC45MDggMTMuMDQ2LDEyLjQ4NCBMMTMuMDQ2LDE3IEw5LjUsMTcgQzkuMjIzLDE3IDksMTcuMjI0IDksMTcuNSBMOSwzMy41MTQgQzksMzMuNzkgOS4yMjMsMzQuMDE0IDkuNSwzNC4wMTQgTDI5LjUxMiwzNC4wMTQgQzI5Ljc4OCwzNC4wMTQgMzAuMDEyLDMzLjc5IDMwLjAxMiwzMy41MTQgTDMwLjAxMiwxNy41IEMzMC4wMTIsMTcuMjI0IDI5Ljc4OCwxNyAyOS41MTIsMTcgTDI5LjUxMiwxNyBaIi8+JiN4YTsgICAgPC9nPiYjeGE7PC9zdmc+;" vertex="1" parent="1">
          <mxGeometry x="340" y="190" width="40" height="40" as="geometry" />
        </mxCell>
        <mxCell id="xotWHUOHVs64-DjdIuKV-21" value="&lt;font color=&quot;#ffffff&quot;&gt;monitoring-subnet-public-1&lt;/font&gt;" style="text;html=1;align=left;verticalAlign=middle;whiteSpace=wrap;rounded=0;spacingLeft=10;" vertex="1" parent="1">
          <mxGeometry x="380" y="190" width="160" height="40" as="geometry" />
        </mxCell>
        <mxCell id="xotWHUOHVs64-DjdIuKV-25" style="edgeStyle=orthogonalEdgeStyle;rounded=0;orthogonalLoop=1;jettySize=auto;html=1;exitX=0;exitY=0.5;exitDx=0;exitDy=0;entryX=1;entryY=0.5;entryDx=0;entryDy=0;dashed=1;dashPattern=8 8;endArrow=none;endFill=0;strokeColor=#9D71F9;flowAnimation=1;" edge="1" parent="1" source="xotWHUOHVs64-DjdIuKV-23" target="xotWHUOHVs64-DjdIuKV-22">
          <mxGeometry relative="1" as="geometry">
            <Array as="points">
              <mxPoint x="370" y="264" />
              <mxPoint x="370" y="354" />
            </Array>
          </mxGeometry>
        </mxCell>
        <mxCell id="xotWHUOHVs64-DjdIuKV-34" value="" style="rounded=0;whiteSpace=wrap;html=1;strokeColor=#22A3A9;fillColor=#4E5862;" vertex="1" parent="1">
          <mxGeometry x="340" y="400" width="260" height="290" as="geometry" />
        </mxCell>
        <mxCell id="xotWHUOHVs64-DjdIuKV-23" value="" style="shape=image;verticalLabelPosition=bottom;labelBackgroundColor=default;verticalAlign=top;aspect=fixed;imageAspect=0;image=data:image/svg+xml,PHN2ZyB4bWxuczp4bGluaz0iaHR0cDovL3d3dy53My5vcmcvMTk5OS94bGluayIgeG1sbnM9Imh0dHA6Ly93d3cudzMub3JnLzIwMDAvc3ZnIiB2ZXJzaW9uPSIxLjEiIHZpZXdCb3g9IjAgMCA0OCA0OCIgaGVpZ2h0PSI0OHB4IiB3aWR0aD0iNDhweCI+JiN4YTsgICAgPHRpdGxlPkljb24tUmVzb3VyY2UvTmV0d29ya2luZy1hbmQtQ29udGVudC1EZWxpdmVyeS9SZXNfQW1hem9uLVZQQ19OQVQtR2F0ZXdheV80ODwvdGl0bGU+JiN4YTsgICAgPGcgZmlsbC1ydWxlPSJldmVub2RkIiBmaWxsPSJub25lIiBzdHJva2Utd2lkdGg9IjEiIHN0cm9rZT0ibm9uZSIgaWQ9Ikljb24tUmVzb3VyY2UvTmV0d29ya2luZy1hbmQtQ29udGVudC1EZWxpdmVyeS9SZXNfQW1hem9uLVZQQ19OQVQtR2F0ZXdheV80OCI+JiN4YTsgICAgICAgIDxwYXRoIGZpbGw9IiM4QzRGRkYiIGlkPSJBV1MtQW1hem9uLVZQQ19OQVQtZ2F0ZXdheV9SZXNvdXJjZS1JY29uX2xpZ2h0LWJnIiBkPSJNMTMuNjI1NSwzNS45MjA5IEwxMy42MjU1LDMzLjA4MjkgTDE1LjM5OTUsMzQuNTAxOSBMMTMuNjI1NSwzNS45MjA5IFogTTEzLjI1MDUsMzAuMjIwOSBDMTIuOTQ5NSwyOS45Nzk5IDEyLjUzNjUsMjkuOTMyOSAxMi4xOTE1LDMwLjEwMDkgQzExLjg0NjUsMzAuMjY3OSAxMS42MjU1LDMwLjYxNjkgMTEuNjI1NSwzMS4wMDE5IEwxMS42MjU1LDM4LjAwMTkgQzExLjYyNTUsMzguMzg2OSAxMS44NDY1LDM4LjczNTkgMTIuMTkxNSwzOC45MDI5IEMxMi4zMzA1LDM4Ljk2OTkgMTIuNDc4NSwzOS4wMDE5IDEyLjYyNTUsMzkuMDAxOSBDMTIuODQ4NSwzOS4wMDE5IDEzLjA2OTUsMzguOTI3OSAxMy4yNTA1LDM4Ljc4MjkgTDE3LjYyNTUsMzUuMjgyOSBDMTcuODYyNSwzNS4wOTI5IDE4LjAwMDUsMzQuODA1OSAxOC4wMDA1LDM0LjUwMTkgQzE4LjAwMDUsMzQuMTk3OSAxNy44NjI1LDMzLjkxMDkgMTcuNjI1NSwzMy43MjA5IEwxMy4yNTA1LDMwLjIyMDkgWiBNMzcuMjUxNSwyNi44MzY5IEwzNy4yNTE1LDIyLjkxNDkgTDM5LjIxMjUsMjQuODc1OSBMMzcuMjUxNSwyNi44MzY5IFogTTQxLjMzMzUsMjQuMTY4OSBMMzYuOTU4NSwxOS43OTM5IEMzNi42NzI1LDE5LjUwNzkgMzYuMjQ0NSwxOS40MjE5IDM1Ljg2ODUsMTkuNTc2OSBDMzUuNDk0NSwxOS43MzE5IDM1LjI1MTUsMjAuMDk2OSAzNS4yNTE1LDIwLjUwMDkgTDM1LjI1MTUsMjMuODc1OSBMMjcuNjI1NSwyMy44NzU5IEwyNy42MjU1LDE0LjM3NTkgQzI3LjYyNTUsMTMuODIyOSAyNy4xNzg1LDEzLjM3NTkgMjYuNjI1NSwxMy4zNzU5IEwxOC45MzE1LDEzLjM3NTkgTDE4LjkzMTUsMTUuMzc1OSBMMjUuNjI1NSwxNS4zNzU5IEwyNS42MjU1LDIzLjg3NTkgTDE4Ljc1MDUsMjMuODc1OSBMMTguNzUwNSwyNS44NzU5IEwyNS42MjU1LDI1Ljg3NTkgTDI1LjYyNTUsMzQuMzc2OSBMMTguOTMxNSwzNC4zNzY5IEwxOC45MzE1LDM2LjM3NjkgTDI2LjYyNTUsMzYuMzc2OSBDMjcuMTc4NSwzNi4zNzY5IDI3LjYyNTUsMzUuOTI5OSAyNy42MjU1LDM1LjM3NjkgTDI3LjYyNTUsMjUuODc1OSBMMzUuMjUxNSwyNS44NzU5IEwzNS4yNTE1LDI5LjI1MTkgQzM1LjI1MTUsMjkuNjU1OSAzNS40OTU1LDMwLjAyMTkgMzUuODY4NSwzMC4xNzU5IEMzNS45OTI1LDMwLjIyNzkgMzYuMTIyNSwzMC4yNTE5IDM2LjI1MTUsMzAuMjUxOSBDMzYuNTExNSwzMC4yNTE5IDM2Ljc2NzUsMzAuMTQ5OSAzNi45NTg1LDI5Ljk1ODkgTDQxLjMzMzUsMjUuNTgyOSBDNDEuNzI0NSwyNS4xOTE5IDQxLjcyNDUsMjQuNTU5OSA0MS4zMzM1LDI0LjE2ODkgTDQxLjMzMzUsMjQuMTY4OSBaIE0xMy42MjU1LDI2LjI5NTkgTDEzLjYyNTUsMjMuNDU2OSBMMTUuMzk5NSwyNC44NzU5IEwxMy42MjU1LDI2LjI5NTkgWiBNMTMuMjUwNSwyMC41OTQ5IEMxMi45NDk1LDIwLjM1MzkgMTIuNTM2NSwyMC4zMDc5IDEyLjE5MTUsMjAuNDc0OSBDMTEuODQ2NSwyMC42NDE5IDExLjYyNTUsMjAuOTkwOSAxMS42MjU1LDIxLjM3NTkgTDExLjYyNTUsMjguMzc2OSBDMTEuNjI1NSwyOC43NjE5IDExLjg0NjUsMjkuMTEwOSAxMi4xOTE1LDI5LjI3NzkgQzEyLjMzMDUsMjkuMzQ0OSAxMi40Nzg1LDI5LjM3NjkgMTIuNjI1NSwyOS4zNzY5IEMxMi44NDg1LDI5LjM3NjkgMTMuMDY5NSwyOS4zMDI5IDEzLjI1MDUsMjkuMTU3OSBMMTcuNjI1NSwyNS42NTY5IEMxNy44NjI1LDI1LjQ2NjkgMTguMDAwNSwyNS4xNzk5IDE4LjAwMDUsMjQuODc1OSBDMTguMDAwNSwyNC41NzE5IDE3Ljg2MjUsMjQuMjg0OSAxNy42MjU1LDI0LjA5NDkgTDEzLjI1MDUsMjAuNTk0OSBaIE0xMy42MjU1LDE1Ljc5NDkgTDEzLjYyNTUsMTIuOTU2OSBMMTUuMzk5NSwxNC4zNzU5IEwxMy42MjU1LDE1Ljc5NDkgWiBNMTMuMjUwNSwxMC4wOTQ5IEMxMi45NDk1LDkuODUzOSAxMi41MzY1LDkuODA2OSAxMi4xOTE1LDkuOTc0OSBDMTEuODQ2NSwxMC4xNDE5IDExLjYyNTUsMTAuNDkwOSAxMS42MjU1LDEwLjg3NTkgTDExLjYyNTUsMTcuODc1OSBDMTEuNjI1NSwxOC4yNjA5IDExLjg0NjUsMTguNjA5OSAxMi4xOTE1LDE4Ljc3NjkgQzEyLjMzMDUsMTguODQzOSAxMi40Nzg1LDE4Ljg3NTkgMTIuNjI1NSwxOC44NzU5IEMxMi44NDg1LDE4Ljg3NTkgMTMuMDY5NSwxOC44MDE5IDEzLjI1MDUsMTguNjU2OSBMMTcuNjI1NSwxNS4xNTY5IEMxNy44NjI1LDE0Ljk2NjkgMTguMDAwNSwxNC42Nzk5IDE4LjAwMDUsMTQuMzc1OSBDMTguMDAwNSwxNC4wNzE5IDE3Ljg2MjUsMTMuNzg0OSAxNy42MjU1LDEzLjU5NDkgTDEzLjI1MDUsMTAuMDk0OSBaIE0yNC4wMDA1LDQ0LjAwMjkgQzEyLjk3MjUsNDQuMDAyOSAzLjk5OTUsMzUuMDI5OSAzLjk5OTUsMjQuMDAwOSBDMy45OTk1LDEyLjk3MjkgMTIuOTcyNSwzLjk5OTkgMjQuMDAwNSwzLjk5OTkgQzM1LjAyOTUsMy45OTk5IDQ0LjAwMjUsMTIuOTcyOSA0NC4wMDI1LDI0LjAwMDkgQzQ0LjAwMjUsMzUuMDI5OSAzNS4wMjk1LDQ0LjAwMjkgMjQuMDAwNSw0NC4wMDI5IEwyNC4wMDA1LDQ0LjAwMjkgWiBNMjQuMDAwNSwxLjk5OTkgQzExLjg2ODUsMS45OTk5IDEuOTk5NSwxMS44Njg5IDEuOTk5NSwyNC4wMDA5IEMxLjk5OTUsMzYuMTMyOSAxMS44Njg1LDQ2LjAwMjkgMjQuMDAwNSw0Ni4wMDI5IEMzNi4xMzI1LDQ2LjAwMjkgNDYuMDAyNSwzNi4xMzI5IDQ2LjAwMjUsMjQuMDAwOSBDNDYuMDAyNSwxMS44Njg5IDM2LjEzMjUsMS45OTk5IDI0LjAwMDUsMS45OTk5IEwyNC4wMDA1LDEuOTk5OSBaIi8+JiN4YTsgICAgPC9nPiYjeGE7PC9zdmc+;" vertex="1" parent="1">
          <mxGeometry x="436" y="240" width="48" height="48" as="geometry" />
        </mxCell>
        <mxCell id="xotWHUOHVs64-DjdIuKV-55" style="edgeStyle=orthogonalEdgeStyle;rounded=0;orthogonalLoop=1;jettySize=auto;html=1;exitX=0.5;exitY=0;exitDx=0;exitDy=0;entryX=0.5;entryY=1;entryDx=0;entryDy=0;endArrow=none;endFill=0;strokeColor=#22A3A9;dashed=1;flowAnimation=1;dashPattern=8 8;" edge="1" parent="1" source="xotWHUOHVs64-DjdIuKV-35" target="xotWHUOHVs64-DjdIuKV-23">
          <mxGeometry relative="1" as="geometry" />
        </mxCell>
        <mxCell id="xotWHUOHVs64-DjdIuKV-35" value="&lt;font color=&quot;#ffffff&quot;&gt;monitoring-subnet-private-1&lt;/font&gt;" style="text;html=1;align=left;verticalAlign=middle;whiteSpace=wrap;rounded=0;spacingLeft=10;" vertex="1" parent="1">
          <mxGeometry x="380" y="400" width="160" height="40" as="geometry" />
        </mxCell>
        <mxCell id="xotWHUOHVs64-DjdIuKV-36" value="" style="rounded=0;whiteSpace=wrap;html=1;strokeColor=#22A3C4;fillColor=none;dashed=1;dashPattern=8 8;" vertex="1" parent="1">
          <mxGeometry x="650" y="100" width="280" height="610" as="geometry" />
        </mxCell>
        <mxCell id="xotWHUOHVs64-DjdIuKV-37" value="&lt;font color=&quot;#ffffff&quot;&gt;ap-southeast-1b&lt;/font&gt;" style="text;html=1;align=center;verticalAlign=middle;whiteSpace=wrap;rounded=0;" vertex="1" parent="1">
          <mxGeometry x="730" y="100" width="120" height="40" as="geometry" />
        </mxCell>
        <mxCell id="xotWHUOHVs64-DjdIuKV-38" value="" style="rounded=0;whiteSpace=wrap;html=1;fillColor=#3B4C59;strokeColor=#70ab4a;" vertex="1" parent="1">
          <mxGeometry x="660" y="190" width="260" height="120" as="geometry" />
        </mxCell>
        <mxCell id="xotWHUOHVs64-DjdIuKV-39" value="" style="shape=image;verticalLabelPosition=bottom;labelBackgroundColor=default;verticalAlign=top;aspect=fixed;imageAspect=0;image=data:image/svg+xml,PHN2ZyB4bWxuczp4bGluaz0iaHR0cDovL3d3dy53My5vcmcvMTk5OS94bGluayIgeG1sbnM9Imh0dHA6Ly93d3cudzMub3JnLzIwMDAvc3ZnIiB2ZXJzaW9uPSIxLjEiIHZpZXdCb3g9IjAgMCA0MCA0MCIgaGVpZ2h0PSI0MHB4IiB3aWR0aD0iNDBweCI+JiN4YTsgICAgPHRpdGxlPkljb24tQXJjaGl0ZWN0dXJlLUdyb3VwLzMyL1B1YmxpYy1zdWJuZXRfMzI8L3RpdGxlPiYjeGE7ICAgIDxnIGZpbGwtcnVsZT0iZXZlbm9kZCIgZmlsbD0ibm9uZSIgc3Ryb2tlLXdpZHRoPSIxIiBzdHJva2U9Im5vbmUiIGlkPSJJY29uLUFyY2hpdGVjdHVyZS1Hcm91cC8zMi9QdWJsaWMtc3VibmV0XzMyIj4mI3hhOyAgICAgICAgPHJlY3QgaGVpZ2h0PSI0MCIgd2lkdGg9IjQwIiB5PSIwIiB4PSIwIiBmaWxsPSIjN0FBMTE2IiBpZD0iUmVjdGFuZ2xlIi8+JiN4YTsgICAgICAgIDxwYXRoIGZpbGw9IiNGRkZGRkYiIGlkPSJGaWxsLTEiIGQ9Ik0xOS41MzYsMjIuMDQ5IEMyMC42NDIsMjIuMDQ5IDIxLjU0MiwyMi45NDggMjEuNTQyLDI0LjA1NCBDMjEuNTQyLDI1LjE2IDIwLjY0MiwyNi4wNiAxOS41MzYsMjYuMDYgQzE4LjQzLDI2LjA2IDE3LjUzLDI1LjE2IDE3LjUzLDI0LjA1NCBDMTcuNTMsMjIuOTQ4IDE4LjQzLDIyLjA0OSAxOS41MzYsMjIuMDQ5IEwxOS41MzYsMjIuMDQ5IFogTTE5LjAxMiwyNy4wMDcgTDE5LjAxMiwzMC41MDEgTDIwLjAxMiwzMC41MDEgTDIwLjAxMiwyNy4wMTIgQzIxLjQ0MiwyNi43ODIgMjIuNTQyLDI1LjU0OSAyMi41NDIsMjQuMDU0IEMyMi41NDIsMjIuMzk3IDIxLjE5MywyMS4wNDkgMTkuNTM2LDIxLjA0OSBDMTcuODc5LDIxLjA0OSAxNi41MywyMi4zOTcgMTYuNTMsMjQuMDU0IEMxNi41MywyNS41MzIgMTcuNjA0LDI2Ljc1NyAxOS4wMTIsMjcuMDA3IEwxOS4wMTIsMjcuMDA3IFogTTEwLDMzLjAxNCBMMjkuMDEyLDMzLjAxNCBMMjkuMDEyLDE4IEwxMCwxOCBMMTAsMzMuMDE0IFogTTE0LjA0NiwxMi40ODQgQzE0LjA0Niw5LjQ2IDE2LjUwNiw3IDE5LjUyOSw3IEMyMi41NTMsNyAyNS4wMTIsOS40NiAyNS4wMTIsMTIuNDg0IEwyNS4wMTIsMTcgTDE0LjA0NiwxNyBMMTQuMDQ2LDEyLjQ4NCBaIE0yOS41MTIsMTcgTDI2LjAxMiwxNyBMMjYuMDEyLDEyLjQ4NCBDMjYuMDEyLDguOTA4IDIzLjEwMyw2IDE5LjUyOSw2IEMxNS45NTQsNiAxMy4wNDYsOC45MDggMTMuMDQ2LDEyLjQ4NCBMMTMuMDQ2LDE3IEw5LjUsMTcgQzkuMjIzLDE3IDksMTcuMjI0IDksMTcuNSBMOSwzMy41MTQgQzksMzMuNzkgOS4yMjMsMzQuMDE0IDkuNSwzNC4wMTQgTDI5LjUxMiwzNC4wMTQgQzI5Ljc4OCwzNC4wMTQgMzAuMDEyLDMzLjc5IDMwLjAxMiwzMy41MTQgTDMwLjAxMiwxNy41IEMzMC4wMTIsMTcuMjI0IDI5Ljc4OCwxNyAyOS41MTIsMTcgTDI5LjUxMiwxNyBaIi8+JiN4YTsgICAgPC9nPiYjeGE7PC9zdmc+;" vertex="1" parent="1">
          <mxGeometry x="660" y="190" width="40" height="40" as="geometry" />
        </mxCell>
        <mxCell id="xotWHUOHVs64-DjdIuKV-40" value="&lt;font color=&quot;#ffffff&quot;&gt;monitoring-subnet-public-2&lt;/font&gt;" style="text;html=1;align=left;verticalAlign=middle;whiteSpace=wrap;rounded=0;spacingLeft=10;" vertex="1" parent="1">
          <mxGeometry x="700" y="190" width="160" height="40" as="geometry" />
        </mxCell>
        <mxCell id="xotWHUOHVs64-DjdIuKV-59" style="edgeStyle=orthogonalEdgeStyle;rounded=0;orthogonalLoop=1;jettySize=auto;html=1;exitX=0.5;exitY=0;exitDx=0;exitDy=0;strokeColor=#22A3A9;endArrow=none;endFill=0;flowAnimation=1;dashed=1;dashPattern=8 8;" edge="1" parent="1" source="xotWHUOHVs64-DjdIuKV-41">
          <mxGeometry relative="1" as="geometry">
            <mxPoint x="790" y="360" as="targetPoint" />
            <Array as="points">
              <mxPoint x="790" y="360" />
            </Array>
          </mxGeometry>
        </mxCell>
        <mxCell id="xotWHUOHVs64-DjdIuKV-41" value="" style="rounded=0;whiteSpace=wrap;html=1;strokeColor=#22A3A9;fillColor=#4E5862;" vertex="1" parent="1">
          <mxGeometry x="660" y="400" width="260" height="290" as="geometry" />
        </mxCell>
        <mxCell id="xotWHUOHVs64-DjdIuKV-42" value="" style="shape=image;verticalLabelPosition=bottom;labelBackgroundColor=default;verticalAlign=top;aspect=fixed;imageAspect=0;image=data:image/svg+xml,PHN2ZyB4bWxuczp4bGluaz0iaHR0cDovL3d3dy53My5vcmcvMTk5OS94bGluayIgeG1sbnM9Imh0dHA6Ly93d3cudzMub3JnLzIwMDAvc3ZnIiB2ZXJzaW9uPSIxLjEiIHZpZXdCb3g9IjAgMCA0MCA0MCIgaGVpZ2h0PSI0MHB4IiB3aWR0aD0iNDBweCI+JiN4YTsgICAgPHRpdGxlPkljb24tQXJjaGl0ZWN0dXJlLUdyb3VwLzMyL1ByaXZhdGUtc3VibmV0XzMyPC90aXRsZT4mI3hhOyAgICA8ZyBmaWxsLXJ1bGU9ImV2ZW5vZGQiIGZpbGw9Im5vbmUiIHN0cm9rZS13aWR0aD0iMSIgc3Ryb2tlPSJub25lIiBpZD0iSWNvbi1BcmNoaXRlY3R1cmUtR3JvdXAvMzIvUHJpdmF0ZS1zdWJuZXRfMzIiPiYjeGE7ICAgICAgICA8cmVjdCBoZWlnaHQ9IjQwIiB3aWR0aD0iNDAiIHk9IjAiIHg9IjAiIGZpbGw9IiMwMEE0QTYiIGlkPSJSZWN0YW5nbGUiLz4mI3hhOyAgICAgICAgPHBhdGggZmlsbD0iI0ZGRkZGRiIgaWQ9IkZpbGwtMSIgZD0iTTE5LjUzNiwyMi4wNDkgQzIwLjY0MiwyMi4wNDkgMjEuNTQyLDIyLjk0OCAyMS41NDIsMjQuMDU0IEMyMS41NDIsMjUuMTYgMjAuNjQyLDI2LjA2IDE5LjUzNiwyNi4wNiBDMTguNDMsMjYuMDYgMTcuNTMsMjUuMTYgMTcuNTMsMjQuMDU0IEMxNy41MywyMi45NDggMTguNDMsMjIuMDQ5IDE5LjUzNiwyMi4wNDkgTDE5LjUzNiwyMi4wNDkgWiBNMTkuMDEyLDI3LjAwNyBMMTkuMDEyLDMwLjUwMSBMMjAuMDEyLDMwLjUwMSBMMjAuMDEyLDI3LjAxMiBDMjEuNDQyLDI2Ljc4MiAyMi41NDIsMjUuNTQ5IDIyLjU0MiwyNC4wNTQgQzIyLjU0MiwyMi4zOTcgMjEuMTkzLDIxLjA0OSAxOS41MzYsMjEuMDQ5IEMxNy44NzksMjEuMDQ5IDE2LjUzLDIyLjM5NyAxNi41MywyNC4wNTQgQzE2LjUzLDI1LjUzMiAxNy42MDQsMjYuNzU3IDE5LjAxMiwyNy4wMDcgTDE5LjAxMiwyNy4wMDcgWiBNMTAsMzMuMDE0IEwyOS4wMTIsMzMuMDE0IEwyOS4wMTIsMTggTDEwLDE4IEwxMCwzMy4wMTQgWiBNMTQuMDQ2LDEyLjQ4NCBDMTQuMDQ2LDkuNDYgMTYuNTA2LDcgMTkuNTI5LDcgQzIyLjU1Myw3IDI1LjAxMiw5LjQ2IDI1LjAxMiwxMi40ODQgTDI1LjAxMiwxNyBMMTQuMDQ2LDE3IEwxNC4wNDYsMTIuNDg0IFogTTI5LjUxMiwxNyBMMjYuMDEyLDE3IEwyNi4wMTIsMTIuNDg0IEMyNi4wMTIsOC45MDggMjMuMTAzLDYgMTkuNTI5LDYgQzE1Ljk1NCw2IDEzLjA0Niw4LjkwOCAxMy4wNDYsMTIuNDg0IEwxMy4wNDYsMTcgTDkuNSwxNyBDOS4yMjMsMTcgOSwxNy4yMjQgOSwxNy41IEw5LDMzLjUxNCBDOSwzMy43OSA5LjIyMywzNC4wMTQgOS41LDM0LjAxNCBMMjkuNTEyLDM0LjAxNCBDMjkuNzg4LDM0LjAxNCAzMC4wMTIsMzMuNzkgMzAuMDEyLDMzLjUxNCBMMzAuMDEyLDE3LjUgQzMwLjAxMiwxNy4yMjQgMjkuNzg4LDE3IDI5LjUxMiwxNyBMMjkuNTEyLDE3IFoiLz4mI3hhOyAgICA8L2c+JiN4YTs8L3N2Zz4=;" vertex="1" parent="1">
          <mxGeometry x="660" y="400" width="40" height="40" as="geometry" />
        </mxCell>
        <mxCell id="xotWHUOHVs64-DjdIuKV-43" value="&lt;font color=&quot;#ffffff&quot;&gt;monitoring-subnet-private-2&lt;/font&gt;" style="text;html=1;align=left;verticalAlign=middle;whiteSpace=wrap;rounded=0;spacingLeft=10;" vertex="1" parent="1">
          <mxGeometry x="700" y="400" width="160" height="40" as="geometry" />
        </mxCell>
        <mxCell id="xotWHUOHVs64-DjdIuKV-44" value="" style="rounded=0;whiteSpace=wrap;html=1;strokeColor=#22A3C4;fillColor=none;dashed=1;dashPattern=8 8;" vertex="1" parent="1">
          <mxGeometry x="980" y="100" width="280" height="610" as="geometry" />
        </mxCell>
        <mxCell id="xotWHUOHVs64-DjdIuKV-63" style="edgeStyle=orthogonalEdgeStyle;rounded=0;orthogonalLoop=1;jettySize=auto;html=1;exitX=0.5;exitY=1;exitDx=0;exitDy=0;dashed=1;dashPattern=8 8;endArrow=none;endFill=0;strokeColor=#70AB4A;flowAnimation=1;" edge="1" parent="1" source="xotWHUOHVs64-DjdIuKV-45">
          <mxGeometry relative="1" as="geometry">
            <mxPoint x="790" y="354" as="targetPoint" />
            <mxPoint x="1119.9999999999998" y="314" as="sourcePoint" />
            <Array as="points">
              <mxPoint x="1120" y="354" />
            </Array>
          </mxGeometry>
        </mxCell>
        <mxCell id="xotWHUOHVs64-DjdIuKV-45" value="" style="rounded=0;whiteSpace=wrap;html=1;fillColor=#3B4C59;strokeColor=#70ab4a;" vertex="1" parent="1">
          <mxGeometry x="990" y="190" width="260" height="120" as="geometry" />
        </mxCell>
        <mxCell id="xotWHUOHVs64-DjdIuKV-46" value="" style="shape=image;verticalLabelPosition=bottom;labelBackgroundColor=default;verticalAlign=top;aspect=fixed;imageAspect=0;image=data:image/svg+xml,PHN2ZyB4bWxuczp4bGluaz0iaHR0cDovL3d3dy53My5vcmcvMTk5OS94bGluayIgeG1sbnM9Imh0dHA6Ly93d3cudzMub3JnLzIwMDAvc3ZnIiB2ZXJzaW9uPSIxLjEiIHZpZXdCb3g9IjAgMCA0MCA0MCIgaGVpZ2h0PSI0MHB4IiB3aWR0aD0iNDBweCI+JiN4YTsgICAgPHRpdGxlPkljb24tQXJjaGl0ZWN0dXJlLUdyb3VwLzMyL1B1YmxpYy1zdWJuZXRfMzI8L3RpdGxlPiYjeGE7ICAgIDxnIGZpbGwtcnVsZT0iZXZlbm9kZCIgZmlsbD0ibm9uZSIgc3Ryb2tlLXdpZHRoPSIxIiBzdHJva2U9Im5vbmUiIGlkPSJJY29uLUFyY2hpdGVjdHVyZS1Hcm91cC8zMi9QdWJsaWMtc3VibmV0XzMyIj4mI3hhOyAgICAgICAgPHJlY3QgaGVpZ2h0PSI0MCIgd2lkdGg9IjQwIiB5PSIwIiB4PSIwIiBmaWxsPSIjN0FBMTE2IiBpZD0iUmVjdGFuZ2xlIi8+JiN4YTsgICAgICAgIDxwYXRoIGZpbGw9IiNGRkZGRkYiIGlkPSJGaWxsLTEiIGQ9Ik0xOS41MzYsMjIuMDQ5IEMyMC42NDIsMjIuMDQ5IDIxLjU0MiwyMi45NDggMjEuNTQyLDI0LjA1NCBDMjEuNTQyLDI1LjE2IDIwLjY0MiwyNi4wNiAxOS41MzYsMjYuMDYgQzE4LjQzLDI2LjA2IDE3LjUzLDI1LjE2IDE3LjUzLDI0LjA1NCBDMTcuNTMsMjIuOTQ4IDE4LjQzLDIyLjA0OSAxOS41MzYsMjIuMDQ5IEwxOS41MzYsMjIuMDQ5IFogTTE5LjAxMiwyNy4wMDcgTDE5LjAxMiwzMC41MDEgTDIwLjAxMiwzMC41MDEgTDIwLjAxMiwyNy4wMTIgQzIxLjQ0MiwyNi43ODIgMjIuNTQyLDI1LjU0OSAyMi41NDIsMjQuMDU0IEMyMi41NDIsMjIuMzk3IDIxLjE5MywyMS4wNDkgMTkuNTM2LDIxLjA0OSBDMTcuODc5LDIxLjA0OSAxNi41MywyMi4zOTcgMTYuNTMsMjQuMDU0IEMxNi41MywyNS41MzIgMTcuNjA0LDI2Ljc1NyAxOS4wMTIsMjcuMDA3IEwxOS4wMTIsMjcuMDA3IFogTTEwLDMzLjAxNCBMMjkuMDEyLDMzLjAxNCBMMjkuMDEyLDE4IEwxMCwxOCBMMTAsMzMuMDE0IFogTTE0LjA0NiwxMi40ODQgQzE0LjA0Niw5LjQ2IDE2LjUwNiw3IDE5LjUyOSw3IEMyMi41NTMsNyAyNS4wMTIsOS40NiAyNS4wMTIsMTIuNDg0IEwyNS4wMTIsMTcgTDE0LjA0NiwxNyBMMTQuMDQ2LDEyLjQ4NCBaIE0yOS41MTIsMTcgTDI2LjAxMiwxNyBMMjYuMDEyLDEyLjQ4NCBDMjYuMDEyLDguOTA4IDIzLjEwMyw2IDE5LjUyOSw2IEMxNS45NTQsNiAxMy4wNDYsOC45MDggMTMuMDQ2LDEyLjQ4NCBMMTMuMDQ2LDE3IEw5LjUsMTcgQzkuMjIzLDE3IDksMTcuMjI0IDksMTcuNSBMOSwzMy41MTQgQzksMzMuNzkgOS4yMjMsMzQuMDE0IDkuNSwzNC4wMTQgTDI5LjUxMiwzNC4wMTQgQzI5Ljc4OCwzNC4wMTQgMzAuMDEyLDMzLjc5IDMwLjAxMiwzMy41MTQgTDMwLjAxMiwxNy41IEMzMC4wMTIsMTcuMjI0IDI5Ljc4OCwxNyAyOS41MTIsMTcgTDI5LjUxMiwxNyBaIi8+JiN4YTsgICAgPC9nPiYjeGE7PC9zdmc+;" vertex="1" parent="1">
          <mxGeometry x="990" y="190" width="40" height="40" as="geometry" />
        </mxCell>
        <mxCell id="xotWHUOHVs64-DjdIuKV-47" value="&lt;font color=&quot;#ffffff&quot;&gt;monitoring-subnet-public-3&lt;/font&gt;" style="text;html=1;align=left;verticalAlign=middle;whiteSpace=wrap;rounded=0;spacingLeft=10;" vertex="1" parent="1">
          <mxGeometry x="1030" y="190" width="160" height="40" as="geometry" />
        </mxCell>
        <mxCell id="xotWHUOHVs64-DjdIuKV-58" style="edgeStyle=orthogonalEdgeStyle;rounded=0;orthogonalLoop=1;jettySize=auto;html=1;exitX=0.5;exitY=0;exitDx=0;exitDy=0;endArrow=none;endFill=0;dashed=1;dashPattern=8 8;flowAnimation=1;strokeColor=#22A3A9;" edge="1" parent="1" source="xotWHUOHVs64-DjdIuKV-48">
          <mxGeometry relative="1" as="geometry">
            <mxPoint x="460" y="360" as="targetPoint" />
            <Array as="points">
              <mxPoint x="1120" y="360" />
              <mxPoint x="460" y="360" />
            </Array>
          </mxGeometry>
        </mxCell>
        <mxCell id="xotWHUOHVs64-DjdIuKV-48" value="" style="rounded=0;whiteSpace=wrap;html=1;strokeColor=#22A3A9;fillColor=#4E5862;" vertex="1" parent="1">
          <mxGeometry x="990" y="400" width="260" height="290" as="geometry" />
        </mxCell>
        <mxCell id="xotWHUOHVs64-DjdIuKV-49" value="" style="shape=image;verticalLabelPosition=bottom;labelBackgroundColor=default;verticalAlign=top;aspect=fixed;imageAspect=0;image=data:image/svg+xml,PHN2ZyB4bWxuczp4bGluaz0iaHR0cDovL3d3dy53My5vcmcvMTk5OS94bGluayIgeG1sbnM9Imh0dHA6Ly93d3cudzMub3JnLzIwMDAvc3ZnIiB2ZXJzaW9uPSIxLjEiIHZpZXdCb3g9IjAgMCA0MCA0MCIgaGVpZ2h0PSI0MHB4IiB3aWR0aD0iNDBweCI+JiN4YTsgICAgPHRpdGxlPkljb24tQXJjaGl0ZWN0dXJlLUdyb3VwLzMyL1ByaXZhdGUtc3VibmV0XzMyPC90aXRsZT4mI3hhOyAgICA8ZyBmaWxsLXJ1bGU9ImV2ZW5vZGQiIGZpbGw9Im5vbmUiIHN0cm9rZS13aWR0aD0iMSIgc3Ryb2tlPSJub25lIiBpZD0iSWNvbi1BcmNoaXRlY3R1cmUtR3JvdXAvMzIvUHJpdmF0ZS1zdWJuZXRfMzIiPiYjeGE7ICAgICAgICA8cmVjdCBoZWlnaHQ9IjQwIiB3aWR0aD0iNDAiIHk9IjAiIHg9IjAiIGZpbGw9IiMwMEE0QTYiIGlkPSJSZWN0YW5nbGUiLz4mI3hhOyAgICAgICAgPHBhdGggZmlsbD0iI0ZGRkZGRiIgaWQ9IkZpbGwtMSIgZD0iTTE5LjUzNiwyMi4wNDkgQzIwLjY0MiwyMi4wNDkgMjEuNTQyLDIyLjk0OCAyMS41NDIsMjQuMDU0IEMyMS41NDIsMjUuMTYgMjAuNjQyLDI2LjA2IDE5LjUzNiwyNi4wNiBDMTguNDMsMjYuMDYgMTcuNTMsMjUuMTYgMTcuNTMsMjQuMDU0IEMxNy41MywyMi45NDggMTguNDMsMjIuMDQ5IDE5LjUzNiwyMi4wNDkgTDE5LjUzNiwyMi4wNDkgWiBNMTkuMDEyLDI3LjAwNyBMMTkuMDEyLDMwLjUwMSBMMjAuMDEyLDMwLjUwMSBMMjAuMDEyLDI3LjAxMiBDMjEuNDQyLDI2Ljc4MiAyMi41NDIsMjUuNTQ5IDIyLjU0MiwyNC4wNTQgQzIyLjU0MiwyMi4zOTcgMjEuMTkzLDIxLjA0OSAxOS41MzYsMjEuMDQ5IEMxNy44NzksMjEuMDQ5IDE2LjUzLDIyLjM5NyAxNi41MywyNC4wNTQgQzE2LjUzLDI1LjUzMiAxNy42MDQsMjYuNzU3IDE5LjAxMiwyNy4wMDcgTDE5LjAxMiwyNy4wMDcgWiBNMTAsMzMuMDE0IEwyOS4wMTIsMzMuMDE0IEwyOS4wMTIsMTggTDEwLDE4IEwxMCwzMy4wMTQgWiBNMTQuMDQ2LDEyLjQ4NCBDMTQuMDQ2LDkuNDYgMTYuNTA2LDcgMTkuNTI5LDcgQzIyLjU1Myw3IDI1LjAxMiw5LjQ2IDI1LjAxMiwxMi40ODQgTDI1LjAxMiwxNyBMMTQuMDQ2LDE3IEwxNC4wNDYsMTIuNDg0IFogTTI5LjUxMiwxNyBMMjYuMDEyLDE3IEwyNi4wMTIsMTIuNDg0IEMyNi4wMTIsOC45MDggMjMuMTAzLDYgMTkuNTI5LDYgQzE1Ljk1NCw2IDEzLjA0Niw4LjkwOCAxMy4wNDYsMTIuNDg0IEwxMy4wNDYsMTcgTDkuNSwxNyBDOS4yMjMsMTcgOSwxNy4yMjQgOSwxNy41IEw5LDMzLjUxNCBDOSwzMy43OSA5LjIyMywzNC4wMTQgOS41LDM0LjAxNCBMMjkuNTEyLDM0LjAxNCBDMjkuNzg4LDM0LjAxNCAzMC4wMTIsMzMuNzkgMzAuMDEyLDMzLjUxNCBMMzAuMDEyLDE3LjUgQzMwLjAxMiwxNy4yMjQgMjkuNzg4LDE3IDI5LjUxMiwxNyBMMjkuNTEyLDE3IFoiLz4mI3hhOyAgICA8L2c+JiN4YTs8L3N2Zz4=;" vertex="1" parent="1">
          <mxGeometry x="990" y="400" width="40" height="40" as="geometry" />
        </mxCell>
        <mxCell id="xotWHUOHVs64-DjdIuKV-50" value="&lt;font color=&quot;#ffffff&quot;&gt;monitoring-subnet-private-3&lt;/font&gt;" style="text;html=1;align=left;verticalAlign=middle;whiteSpace=wrap;rounded=0;spacingLeft=10;" vertex="1" parent="1">
          <mxGeometry x="1030" y="400" width="160" height="40" as="geometry" />
        </mxCell>
        <mxCell id="xotWHUOHVs64-DjdIuKV-51" value="" style="shape=image;verticalLabelPosition=bottom;labelBackgroundColor=default;verticalAlign=top;aspect=fixed;imageAspect=0;image=data:image/svg+xml,PHN2ZyB4bWxuczp4bGluaz0iaHR0cDovL3d3dy53My5vcmcvMTk5OS94bGluayIgeG1sbnM9Imh0dHA6Ly93d3cudzMub3JnLzIwMDAvc3ZnIiB2ZXJzaW9uPSIxLjEiIHZpZXdCb3g9IjAgMCA0MCA0MCIgaGVpZ2h0PSI0MHB4IiB3aWR0aD0iNDBweCI+JiN4YTsgICAgPHRpdGxlPkljb24tQXJjaGl0ZWN0dXJlLUdyb3VwLzMyL0F1dG8tU2NhbGluZy1ncm91cF8zMjwvdGl0bGU+JiN4YTsgICAgPGcgZmlsbC1ydWxlPSJldmVub2RkIiBmaWxsPSJub25lIiBzdHJva2Utd2lkdGg9IjEiIHN0cm9rZT0ibm9uZSIgaWQ9Ikljb24tQXJjaGl0ZWN0dXJlLUdyb3VwLzMyL0F1dG8tU2NhbGluZy1ncm91cF8zMiI+JiN4YTsgICAgICAgIDxyZWN0IGhlaWdodD0iNDAiIHdpZHRoPSI0MCIgeT0iMCIgeD0iMCIgZmlsbD0iI0VENzEwMCIgaWQ9IlJlY3RhbmdsZSIvPiYjeGE7ICAgICAgICA8cGF0aCBmaWxsPSIjRkZGRkZGIiBpZD0iRmlsbC0xIiBkPSJNMTguMDIxLDE5LjQ5NTI1MzggQzE4LjAyMSwxOS4zNDAyNTM4IDE3Ljk1LDE5LjE5ODI1MzggMTcuODMzLDE5LjEwNDI1MzggTDE0Ljg3OSwxNi4xNTEyNTM4IEwxNC4xNzIsMTYuODU4MjUzOCBMMTYuMzEsMTguOTk1MjUzOCBMNywxOC45OTUyNTM4IEw3LDE5Ljk5NTI1MzggTDE2LjMxNCwxOS45OTUyNTM4IEwxNC4xNzIsMjIuMTM3MjUzOCBMMTQuODc5LDIyLjg0NDI1MzggTDE3Ljg0OCwxOS44NzUyNTM4IEMxNy45NTYsMTkuNzgxMjUzOCAxOC4wMjEsMTkuNjQzMjUzOCAxOC4wMjEsMTkuNDk1MjUzOCBMMTguMDIxLDE5LjQ5NTI1MzggWiBNMzMuOTg2LDE4Ljk5NTI1MzggTDI0LjY3NSwxOC45OTUyNTM4IEwyNi44MTMsMTYuODU4MjUzOCBMMjYuMTA2LDE2LjE1MTI1MzggTDIzLjEzNywxOS4xMjAyNTM4IEMyMy4wMywxOS4yMTMyNTM4IDIyLjk2NCwxOS4zNTEyNTM4IDIyLjk2NCwxOS40OTkyNTM4IEMyMi45NjQsMTkuNjU0MjUzOCAyMy4wMzYsMTkuNzk3MjUzOCAyMy4xNTMsMTkuODkwMjUzOCBMMjYuMTA2LDIyLjg0NDI1MzggTDI2LjgxMywyMi4xMzcyNTM4IEwyNC42NzEsMTkuOTk1MjUzOCBMMzMuOTg2LDE5Ljk5NTI1MzggTDMzLjk4NiwxOC45OTUyNTM4IFogTTIwLjk5NiwzMS4zMjQyNTM4IEwyMC45OTYsMjIuMDEwMjUzOCBMMTkuOTk2LDIyLjAxMDI1MzggTDE5Ljk5NiwzMS4zMjAyNTM4IEwxNy44NTgsMjkuMTgzMjUzOCBMMTcuMTUxLDI5Ljg5MDI1MzggTDIwLjEyLDMyLjg1NzI1MzggQzIwLjIxMywzMi45NjYyNTM4IDIwLjM1MiwzMy4wMzIyNTM4IDIwLjUsMzMuMDMyMjUzOCBDMjAuNjU2LDMzLjAzMjI1MzggMjAuOCwzMi45NTkyNTM4IDIwLjg5MywzMi44NDEyNTM4IEwyMy44NDQsMjkuODkwMjUzOCBMMjMuMTM3LDI5LjE4MzI1MzggTDIwLjk5NiwzMS4zMjQyNTM4IFogTTE3Ljg1OCw5LjgzNzI1Mzc2IEwxNy4xNTEsOS4xMzAyNTM3NiBMMjAuMTAzLDYuMTc5MjUzNzYgQzIwLjI4NSw1Ljk0NzI1Mzc2IDIwLjY4Myw1LjkzOTI1Mzc2IDIwLjg3Nyw2LjE2MjI1Mzc2IEwyMy44NDQsOS4xMzAyNTM3NiBMMjMuMTM3LDkuODM3MjUzNzYgTDIwLjk5Niw3LjY5NjI1Mzc2IEwyMC45OTYsMTcuMDEwMjUzOCBMMTkuOTk2LDE3LjAxMDI1MzggTDE5Ljk5Niw3LjcwMDI1Mzc2IEwxNy44NTgsOS44MzcyNTM3NiBaIi8+JiN4YTsgICAgPC9nPiYjeGE7PC9zdmc+;" vertex="1" parent="1">
          <mxGeometry x="245" y="450" width="40" height="40" as="geometry" />
        </mxCell>
        <mxCell id="xotWHUOHVs64-DjdIuKV-52" value="" style="rounded=0;whiteSpace=wrap;html=1;strokeColor=#FD8E1D;fillColor=none;dashed=1;dashPattern=8 8;" vertex="1" parent="1">
          <mxGeometry x="245" y="450" width="995" height="230" as="geometry" />
        </mxCell>
        <mxCell id="xotWHUOHVs64-DjdIuKV-54" value="&lt;font color=&quot;#ffffff&quot;&gt;Auto Scaling Group&lt;/font&gt;" style="text;html=1;align=center;verticalAlign=middle;whiteSpace=wrap;rounded=0;" vertex="1" parent="1">
          <mxGeometry x="285" y="450" width="119" height="40" as="geometry" />
        </mxCell>
        <mxCell id="xotWHUOHVs64-DjdIuKV-32" value="" style="shape=image;verticalLabelPosition=bottom;labelBackgroundColor=default;verticalAlign=top;aspect=fixed;imageAspect=0;image=data:image/svg+xml,PHN2ZyB4bWxuczp4bGluaz0iaHR0cDovL3d3dy53My5vcmcvMTk5OS94bGluayIgeG1sbnM9Imh0dHA6Ly93d3cudzMub3JnLzIwMDAvc3ZnIiB2ZXJzaW9uPSIxLjEiIHZpZXdCb3g9IjAgMCA0MCA0MCIgaGVpZ2h0PSI0MHB4IiB3aWR0aD0iNDBweCI+JiN4YTsgICAgPHRpdGxlPkljb24tQXJjaGl0ZWN0dXJlLUdyb3VwLzMyL1ByaXZhdGUtc3VibmV0XzMyPC90aXRsZT4mI3hhOyAgICA8ZyBmaWxsLXJ1bGU9ImV2ZW5vZGQiIGZpbGw9Im5vbmUiIHN0cm9rZS13aWR0aD0iMSIgc3Ryb2tlPSJub25lIiBpZD0iSWNvbi1BcmNoaXRlY3R1cmUtR3JvdXAvMzIvUHJpdmF0ZS1zdWJuZXRfMzIiPiYjeGE7ICAgICAgICA8cmVjdCBoZWlnaHQ9IjQwIiB3aWR0aD0iNDAiIHk9IjAiIHg9IjAiIGZpbGw9IiMwMEE0QTYiIGlkPSJSZWN0YW5nbGUiLz4mI3hhOyAgICAgICAgPHBhdGggZmlsbD0iI0ZGRkZGRiIgaWQ9IkZpbGwtMSIgZD0iTTE5LjUzNiwyMi4wNDkgQzIwLjY0MiwyMi4wNDkgMjEuNTQyLDIyLjk0OCAyMS41NDIsMjQuMDU0IEMyMS41NDIsMjUuMTYgMjAuNjQyLDI2LjA2IDE5LjUzNiwyNi4wNiBDMTguNDMsMjYuMDYgMTcuNTMsMjUuMTYgMTcuNTMsMjQuMDU0IEMxNy41MywyMi45NDggMTguNDMsMjIuMDQ5IDE5LjUzNiwyMi4wNDkgTDE5LjUzNiwyMi4wNDkgWiBNMTkuMDEyLDI3LjAwNyBMMTkuMDEyLDMwLjUwMSBMMjAuMDEyLDMwLjUwMSBMMjAuMDEyLDI3LjAxMiBDMjEuNDQyLDI2Ljc4MiAyMi41NDIsMjUuNTQ5IDIyLjU0MiwyNC4wNTQgQzIyLjU0MiwyMi4zOTcgMjEuMTkzLDIxLjA0OSAxOS41MzYsMjEuMDQ5IEMxNy44NzksMjEuMDQ5IDE2LjUzLDIyLjM5NyAxNi41MywyNC4wNTQgQzE2LjUzLDI1LjUzMiAxNy42MDQsMjYuNzU3IDE5LjAxMiwyNy4wMDcgTDE5LjAxMiwyNy4wMDcgWiBNMTAsMzMuMDE0IEwyOS4wMTIsMzMuMDE0IEwyOS4wMTIsMTggTDEwLDE4IEwxMCwzMy4wMTQgWiBNMTQuMDQ2LDEyLjQ4NCBDMTQuMDQ2LDkuNDYgMTYuNTA2LDcgMTkuNTI5LDcgQzIyLjU1Myw3IDI1LjAxMiw5LjQ2IDI1LjAxMiwxMi40ODQgTDI1LjAxMiwxNyBMMTQuMDQ2LDE3IEwxNC4wNDYsMTIuNDg0IFogTTI5LjUxMiwxNyBMMjYuMDEyLDE3IEwyNi4wMTIsMTIuNDg0IEMyNi4wMTIsOC45MDggMjMuMTAzLDYgMTkuNTI5LDYgQzE1Ljk1NCw2IDEzLjA0Niw4LjkwOCAxMy4wNDYsMTIuNDg0IEwxMy4wNDYsMTcgTDkuNSwxNyBDOS4yMjMsMTcgOSwxNy4yMjQgOSwxNy41IEw5LDMzLjUxNCBDOSwzMy43OSA5LjIyMywzNC4wMTQgOS41LDM0LjAxNCBMMjkuNTEyLDM0LjAxNCBDMjkuNzg4LDM0LjAxNCAzMC4wMTIsMzMuNzkgMzAuMDEyLDMzLjUxNCBMMzAuMDEyLDE3LjUgQzMwLjAxMiwxNy4yMjQgMjkuNzg4LDE3IDI5LjUxMiwxNyBMMjkuNTEyLDE3IFoiLz4mI3hhOyAgICA8L2c+JiN4YTs8L3N2Zz4=;" vertex="1" parent="1">
          <mxGeometry x="340" y="400" width="40" height="40" as="geometry" />
        </mxCell>
        <mxCell id="xotWHUOHVs64-DjdIuKV-62" style="edgeStyle=orthogonalEdgeStyle;rounded=0;orthogonalLoop=1;jettySize=auto;html=1;endArrow=none;endFill=0;exitX=0.5;exitY=1;exitDx=0;exitDy=0;dashed=1;dashPattern=8 8;strokeColor=#70AB4A;flowAnimation=1;" edge="1" parent="1" source="xotWHUOHVs64-DjdIuKV-38">
          <mxGeometry relative="1" as="geometry">
            <mxPoint x="790.0000000000002" y="314" as="sourcePoint" />
            <mxPoint x="470" y="354" as="targetPoint" />
            <Array as="points">
              <mxPoint x="790" y="354" />
            </Array>
          </mxGeometry>
        </mxCell>
        <mxCell id="xotWHUOHVs64-DjdIuKV-64" value="kmaster1" style="shape=image;verticalLabelPosition=bottom;labelBackgroundColor=#4E5862;verticalAlign=top;aspect=fixed;imageAspect=0;image=data:image/svg+xml,PHN2ZyB4bWxuczp4bGluaz0iaHR0cDovL3d3dy53My5vcmcvMTk5OS94bGluayIgeG1sbnM9Imh0dHA6Ly93d3cudzMub3JnLzIwMDAvc3ZnIiB2ZXJzaW9uPSIxLjEiIHZpZXdCb3g9IjAgMCA0MCA0MCIgaGVpZ2h0PSI0MHB4IiB3aWR0aD0iNDBweCI+JiN4YTsgICAgPHRpdGxlPkljb24tQXJjaGl0ZWN0dXJlLUdyb3VwLzMyL0VDMi1pbnN0YW5jZS1jb250ZW50c18zMjwvdGl0bGU+JiN4YTsgICAgPGcgZmlsbC1ydWxlPSJldmVub2RkIiBmaWxsPSJub25lIiBzdHJva2Utd2lkdGg9IjEiIHN0cm9rZT0ibm9uZSIgaWQ9Ikljb24tQXJjaGl0ZWN0dXJlLUdyb3VwLzMyL0VDMi1pbnN0YW5jZS1jb250ZW50c18zMiI+JiN4YTsgICAgICAgIDxyZWN0IGhlaWdodD0iNDAiIHdpZHRoPSI0MCIgeT0iMCIgeD0iMCIgZmlsbD0iI0VENzEwMCIgaWQ9IlJlY3RhbmdsZSIvPiYjeGE7ICAgICAgICA8cGF0aCBmaWxsPSIjRkZGRkZGIiBpZD0iRmlsbC0xIiBkPSJNMTAsMjkgTDI5LDI5IEwyOSwxMCBMMTAsMTAgTDEwLDI5IFogTTMzLDEyIEwzMywxMSBMMzAsMTEgTDMwLDkuNSBDMzAsOS4yMjQgMjkuNzc2LDkgMjkuNSw5IEwyOCw5IEwyOCw2IEwyNyw2IEwyNyw5IEwyNCw5IEwyNCw2IEwyMyw2IEwyMyw5IEwyMCw5IEwyMCw2IEwxOSw2IEwxOSw5IEwxNiw5IEwxNiw2IEwxNSw2IEwxNSw5IEwxMiw5IEwxMiw2IEwxMSw2IEwxMSw5IEw5LjUsOSBDOS4yMjQsOSA5LDkuMjI0IDksOS41IEw5LDExIEw2LDExIEw2LDEyIEw5LDEyIEw5LDE1IEw2LDE1IEw2LDE2IEw5LDE2IEw5LDE5IEw2LDE5IEw2LDIwIEw5LDIwIEw5LDIzIEw2LDIzIEw2LDI0IEw5LDI0IEw5LDI3IEw2LDI3IEw2LDI4IEw5LDI4IEw5LDI5LjUgQzksMjkuNzc2IDkuMjI0LDMwIDkuNSwzMCBMMTEsMzAgTDExLDMzIEwxMiwzMyBMMTIsMzAgTDE1LDMwIEwxNSwzMyBMMTYsMzMgTDE2LDMwIEwxOSwzMCBMMTksMzMgTDIwLDMzIEwyMCwzMCBMMjMsMzAgTDIzLDMzIEwyNCwzMyBMMjQsMzAgTDI3LDMwIEwyNywzMyBMMjgsMzMgTDI4LDMwIEwyOS41LDMwIEMyOS43NzYsMzAgMzAsMjkuNzc2IDMwLDI5LjUgTDMwLDI4IEwzMywyOCBMMzMsMjcgTDMwLDI3IEwzMCwyNCBMMzMsMjQgTDMzLDIzIEwzMCwyMyBMMzAsMjAgTDMzLDIwIEwzMywxOSBMMzAsMTkgTDMwLDE2IEwzMywxNiBMMzMsMTUgTDMwLDE1IEwzMCwxMiBMMzMsMTIgWiIvPiYjeGE7ICAgIDwvZz4mI3hhOzwvc3ZnPg==;fontColor=#FFFFFF;" vertex="1" parent="1">
          <mxGeometry x="380" y="500" width="40" height="40" as="geometry" />
        </mxCell>
        <mxCell id="xotWHUOHVs64-DjdIuKV-65" value="kslave1" style="shape=image;verticalLabelPosition=bottom;labelBackgroundColor=#4E5862;verticalAlign=top;aspect=fixed;imageAspect=0;image=data:image/svg+xml,PHN2ZyB4bWxuczp4bGluaz0iaHR0cDovL3d3dy53My5vcmcvMTk5OS94bGluayIgeG1sbnM9Imh0dHA6Ly93d3cudzMub3JnLzIwMDAvc3ZnIiB2ZXJzaW9uPSIxLjEiIHZpZXdCb3g9IjAgMCA0MCA0MCIgaGVpZ2h0PSI0MHB4IiB3aWR0aD0iNDBweCI+JiN4YTsgICAgPHRpdGxlPkljb24tQXJjaGl0ZWN0dXJlLUdyb3VwLzMyL0VDMi1pbnN0YW5jZS1jb250ZW50c18zMjwvdGl0bGU+JiN4YTsgICAgPGcgZmlsbC1ydWxlPSJldmVub2RkIiBmaWxsPSJub25lIiBzdHJva2Utd2lkdGg9IjEiIHN0cm9rZT0ibm9uZSIgaWQ9Ikljb24tQXJjaGl0ZWN0dXJlLUdyb3VwLzMyL0VDMi1pbnN0YW5jZS1jb250ZW50c18zMiI+JiN4YTsgICAgICAgIDxyZWN0IGhlaWdodD0iNDAiIHdpZHRoPSI0MCIgeT0iMCIgeD0iMCIgZmlsbD0iI0VENzEwMCIgaWQ9IlJlY3RhbmdsZSIvPiYjeGE7ICAgICAgICA8cGF0aCBmaWxsPSIjRkZGRkZGIiBpZD0iRmlsbC0xIiBkPSJNMTAsMjkgTDI5LDI5IEwyOSwxMCBMMTAsMTAgTDEwLDI5IFogTTMzLDEyIEwzMywxMSBMMzAsMTEgTDMwLDkuNSBDMzAsOS4yMjQgMjkuNzc2LDkgMjkuNSw5IEwyOCw5IEwyOCw2IEwyNyw2IEwyNyw5IEwyNCw5IEwyNCw2IEwyMyw2IEwyMyw5IEwyMCw5IEwyMCw2IEwxOSw2IEwxOSw5IEwxNiw5IEwxNiw2IEwxNSw2IEwxNSw5IEwxMiw5IEwxMiw2IEwxMSw2IEwxMSw5IEw5LjUsOSBDOS4yMjQsOSA5LDkuMjI0IDksOS41IEw5LDExIEw2LDExIEw2LDEyIEw5LDEyIEw5LDE1IEw2LDE1IEw2LDE2IEw5LDE2IEw5LDE5IEw2LDE5IEw2LDIwIEw5LDIwIEw5LDIzIEw2LDIzIEw2LDI0IEw5LDI0IEw5LDI3IEw2LDI3IEw2LDI4IEw5LDI4IEw5LDI5LjUgQzksMjkuNzc2IDkuMjI0LDMwIDkuNSwzMCBMMTEsMzAgTDExLDMzIEwxMiwzMyBMMTIsMzAgTDE1LDMwIEwxNSwzMyBMMTYsMzMgTDE2LDMwIEwxOSwzMCBMMTksMzMgTDIwLDMzIEwyMCwzMCBMMjMsMzAgTDIzLDMzIEwyNCwzMyBMMjQsMzAgTDI3LDMwIEwyNywzMyBMMjgsMzMgTDI4LDMwIEwyOS41LDMwIEMyOS43NzYsMzAgMzAsMjkuNzc2IDMwLDI5LjUgTDMwLDI4IEwzMywyOCBMMzMsMjcgTDMwLDI3IEwzMCwyNCBMMzMsMjQgTDMzLDIzIEwzMCwyMyBMMzAsMjAgTDMzLDIwIEwzMywxOSBMMzAsMTkgTDMwLDE2IEwzMywxNiBMMzMsMTUgTDMwLDE1IEwzMCwxMiBMMzMsMTIgWiIvPiYjeGE7ICAgIDwvZz4mI3hhOzwvc3ZnPg==;fontColor=#FFFFFF;" vertex="1" parent="1">
          <mxGeometry x="380" y="570" width="40" height="40" as="geometry" />
        </mxCell>
        <mxCell id="xotWHUOHVs64-DjdIuKV-66" value="kslave2" style="shape=image;verticalLabelPosition=bottom;labelBackgroundColor=#4E5862;verticalAlign=top;aspect=fixed;imageAspect=0;image=data:image/svg+xml,PHN2ZyB4bWxuczp4bGluaz0iaHR0cDovL3d3dy53My5vcmcvMTk5OS94bGluayIgeG1sbnM9Imh0dHA6Ly93d3cudzMub3JnLzIwMDAvc3ZnIiB2ZXJzaW9uPSIxLjEiIHZpZXdCb3g9IjAgMCA0MCA0MCIgaGVpZ2h0PSI0MHB4IiB3aWR0aD0iNDBweCI+JiN4YTsgICAgPHRpdGxlPkljb24tQXJjaGl0ZWN0dXJlLUdyb3VwLzMyL0VDMi1pbnN0YW5jZS1jb250ZW50c18zMjwvdGl0bGU+JiN4YTsgICAgPGcgZmlsbC1ydWxlPSJldmVub2RkIiBmaWxsPSJub25lIiBzdHJva2Utd2lkdGg9IjEiIHN0cm9rZT0ibm9uZSIgaWQ9Ikljb24tQXJjaGl0ZWN0dXJlLUdyb3VwLzMyL0VDMi1pbnN0YW5jZS1jb250ZW50c18zMiI+JiN4YTsgICAgICAgIDxyZWN0IGhlaWdodD0iNDAiIHdpZHRoPSI0MCIgeT0iMCIgeD0iMCIgZmlsbD0iI0VENzEwMCIgaWQ9IlJlY3RhbmdsZSIvPiYjeGE7ICAgICAgICA8cGF0aCBmaWxsPSIjRkZGRkZGIiBpZD0iRmlsbC0xIiBkPSJNMTAsMjkgTDI5LDI5IEwyOSwxMCBMMTAsMTAgTDEwLDI5IFogTTMzLDEyIEwzMywxMSBMMzAsMTEgTDMwLDkuNSBDMzAsOS4yMjQgMjkuNzc2LDkgMjkuNSw5IEwyOCw5IEwyOCw2IEwyNyw2IEwyNyw5IEwyNCw5IEwyNCw2IEwyMyw2IEwyMyw5IEwyMCw5IEwyMCw2IEwxOSw2IEwxOSw5IEwxNiw5IEwxNiw2IEwxNSw2IEwxNSw5IEwxMiw5IEwxMiw2IEwxMSw2IEwxMSw5IEw5LjUsOSBDOS4yMjQsOSA5LDkuMjI0IDksOS41IEw5LDExIEw2LDExIEw2LDEyIEw5LDEyIEw5LDE1IEw2LDE1IEw2LDE2IEw5LDE2IEw5LDE5IEw2LDE5IEw2LDIwIEw5LDIwIEw5LDIzIEw2LDIzIEw2LDI0IEw5LDI0IEw5LDI3IEw2LDI3IEw2LDI4IEw5LDI4IEw5LDI5LjUgQzksMjkuNzc2IDkuMjI0LDMwIDkuNSwzMCBMMTEsMzAgTDExLDMzIEwxMiwzMyBMMTIsMzAgTDE1LDMwIEwxNSwzMyBMMTYsMzMgTDE2LDMwIEwxOSwzMCBMMTksMzMgTDIwLDMzIEwyMCwzMCBMMjMsMzAgTDIzLDMzIEwyNCwzMyBMMjQsMzAgTDI3LDMwIEwyNywzMyBMMjgsMzMgTDI4LDMwIEwyOS41LDMwIEMyOS43NzYsMzAgMzAsMjkuNzc2IDMwLDI5LjUgTDMwLDI4IEwzMywyOCBMMzMsMjcgTDMwLDI3IEwzMCwyNCBMMzMsMjQgTDMzLDIzIEwzMCwyMyBMMzAsMjAgTDMzLDIwIEwzMywxOSBMMzAsMTkgTDMwLDE2IEwzMywxNiBMMzMsMTUgTDMwLDE1IEwzMCwxMiBMMzMsMTIgWiIvPiYjeGE7ICAgIDwvZz4mI3hhOzwvc3ZnPg==;fontColor=#FFFFFF;" vertex="1" parent="1">
          <mxGeometry x="440" y="570" width="40" height="40" as="geometry" />
        </mxCell>
        <mxCell id="xotWHUOHVs64-DjdIuKV-67" value="kmaster2" style="shape=image;verticalLabelPosition=bottom;labelBackgroundColor=#4E5862;verticalAlign=top;aspect=fixed;imageAspect=0;image=data:image/svg+xml,PHN2ZyB4bWxuczp4bGluaz0iaHR0cDovL3d3dy53My5vcmcvMTk5OS94bGluayIgeG1sbnM9Imh0dHA6Ly93d3cudzMub3JnLzIwMDAvc3ZnIiB2ZXJzaW9uPSIxLjEiIHZpZXdCb3g9IjAgMCA0MCA0MCIgaGVpZ2h0PSI0MHB4IiB3aWR0aD0iNDBweCI+JiN4YTsgICAgPHRpdGxlPkljb24tQXJjaGl0ZWN0dXJlLUdyb3VwLzMyL0VDMi1pbnN0YW5jZS1jb250ZW50c18zMjwvdGl0bGU+JiN4YTsgICAgPGcgZmlsbC1ydWxlPSJldmVub2RkIiBmaWxsPSJub25lIiBzdHJva2Utd2lkdGg9IjEiIHN0cm9rZT0ibm9uZSIgaWQ9Ikljb24tQXJjaGl0ZWN0dXJlLUdyb3VwLzMyL0VDMi1pbnN0YW5jZS1jb250ZW50c18zMiI+JiN4YTsgICAgICAgIDxyZWN0IGhlaWdodD0iNDAiIHdpZHRoPSI0MCIgeT0iMCIgeD0iMCIgZmlsbD0iI0VENzEwMCIgaWQ9IlJlY3RhbmdsZSIvPiYjeGE7ICAgICAgICA8cGF0aCBmaWxsPSIjRkZGRkZGIiBpZD0iRmlsbC0xIiBkPSJNMTAsMjkgTDI5LDI5IEwyOSwxMCBMMTAsMTAgTDEwLDI5IFogTTMzLDEyIEwzMywxMSBMMzAsMTEgTDMwLDkuNSBDMzAsOS4yMjQgMjkuNzc2LDkgMjkuNSw5IEwyOCw5IEwyOCw2IEwyNyw2IEwyNyw5IEwyNCw5IEwyNCw2IEwyMyw2IEwyMyw5IEwyMCw5IEwyMCw2IEwxOSw2IEwxOSw5IEwxNiw5IEwxNiw2IEwxNSw2IEwxNSw5IEwxMiw5IEwxMiw2IEwxMSw2IEwxMSw5IEw5LjUsOSBDOS4yMjQsOSA5LDkuMjI0IDksOS41IEw5LDExIEw2LDExIEw2LDEyIEw5LDEyIEw5LDE1IEw2LDE1IEw2LDE2IEw5LDE2IEw5LDE5IEw2LDE5IEw2LDIwIEw5LDIwIEw5LDIzIEw2LDIzIEw2LDI0IEw5LDI0IEw5LDI3IEw2LDI3IEw2LDI4IEw5LDI4IEw5LDI5LjUgQzksMjkuNzc2IDkuMjI0LDMwIDkuNSwzMCBMMTEsMzAgTDExLDMzIEwxMiwzMyBMMTIsMzAgTDE1LDMwIEwxNSwzMyBMMTYsMzMgTDE2LDMwIEwxOSwzMCBMMTksMzMgTDIwLDMzIEwyMCwzMCBMMjMsMzAgTDIzLDMzIEwyNCwzMyBMMjQsMzAgTDI3LDMwIEwyNywzMyBMMjgsMzMgTDI4LDMwIEwyOS41LDMwIEMyOS43NzYsMzAgMzAsMjkuNzc2IDMwLDI5LjUgTDMwLDI4IEwzMywyOCBMMzMsMjcgTDMwLDI3IEwzMCwyNCBMMzMsMjQgTDMzLDIzIEwzMCwyMyBMMzAsMjAgTDMzLDIwIEwzMywxOSBMMzAsMTkgTDMwLDE2IEwzMywxNiBMMzMsMTUgTDMwLDE1IEwzMCwxMiBMMzMsMTIgWiIvPiYjeGE7ICAgIDwvZz4mI3hhOzwvc3ZnPg==;fontColor=#FFFFFF;" vertex="1" parent="1">
          <mxGeometry x="700" y="500" width="40" height="40" as="geometry" />
        </mxCell>
        <mxCell id="xotWHUOHVs64-DjdIuKV-68" value="kslave3" style="shape=image;verticalLabelPosition=bottom;labelBackgroundColor=#4E5862;verticalAlign=top;aspect=fixed;imageAspect=0;image=data:image/svg+xml,PHN2ZyB4bWxuczp4bGluaz0iaHR0cDovL3d3dy53My5vcmcvMTk5OS94bGluayIgeG1sbnM9Imh0dHA6Ly93d3cudzMub3JnLzIwMDAvc3ZnIiB2ZXJzaW9uPSIxLjEiIHZpZXdCb3g9IjAgMCA0MCA0MCIgaGVpZ2h0PSI0MHB4IiB3aWR0aD0iNDBweCI+JiN4YTsgICAgPHRpdGxlPkljb24tQXJjaGl0ZWN0dXJlLUdyb3VwLzMyL0VDMi1pbnN0YW5jZS1jb250ZW50c18zMjwvdGl0bGU+JiN4YTsgICAgPGcgZmlsbC1ydWxlPSJldmVub2RkIiBmaWxsPSJub25lIiBzdHJva2Utd2lkdGg9IjEiIHN0cm9rZT0ibm9uZSIgaWQ9Ikljb24tQXJjaGl0ZWN0dXJlLUdyb3VwLzMyL0VDMi1pbnN0YW5jZS1jb250ZW50c18zMiI+JiN4YTsgICAgICAgIDxyZWN0IGhlaWdodD0iNDAiIHdpZHRoPSI0MCIgeT0iMCIgeD0iMCIgZmlsbD0iI0VENzEwMCIgaWQ9IlJlY3RhbmdsZSIvPiYjeGE7ICAgICAgICA8cGF0aCBmaWxsPSIjRkZGRkZGIiBpZD0iRmlsbC0xIiBkPSJNMTAsMjkgTDI5LDI5IEwyOSwxMCBMMTAsMTAgTDEwLDI5IFogTTMzLDEyIEwzMywxMSBMMzAsMTEgTDMwLDkuNSBDMzAsOS4yMjQgMjkuNzc2LDkgMjkuNSw5IEwyOCw5IEwyOCw2IEwyNyw2IEwyNyw5IEwyNCw5IEwyNCw2IEwyMyw2IEwyMyw5IEwyMCw5IEwyMCw2IEwxOSw2IEwxOSw5IEwxNiw5IEwxNiw2IEwxNSw2IEwxNSw5IEwxMiw5IEwxMiw2IEwxMSw2IEwxMSw5IEw5LjUsOSBDOS4yMjQsOSA5LDkuMjI0IDksOS41IEw5LDExIEw2LDExIEw2LDEyIEw5LDEyIEw5LDE1IEw2LDE1IEw2LDE2IEw5LDE2IEw5LDE5IEw2LDE5IEw2LDIwIEw5LDIwIEw5LDIzIEw2LDIzIEw2LDI0IEw5LDI0IEw5LDI3IEw2LDI3IEw2LDI4IEw5LDI4IEw5LDI5LjUgQzksMjkuNzc2IDkuMjI0LDMwIDkuNSwzMCBMMTEsMzAgTDExLDMzIEwxMiwzMyBMMTIsMzAgTDE1LDMwIEwxNSwzMyBMMTYsMzMgTDE2LDMwIEwxOSwzMCBMMTksMzMgTDIwLDMzIEwyMCwzMCBMMjMsMzAgTDIzLDMzIEwyNCwzMyBMMjQsMzAgTDI3LDMwIEwyNywzMyBMMjgsMzMgTDI4LDMwIEwyOS41LDMwIEMyOS43NzYsMzAgMzAsMjkuNzc2IDMwLDI5LjUgTDMwLDI4IEwzMywyOCBMMzMsMjcgTDMwLDI3IEwzMCwyNCBMMzMsMjQgTDMzLDIzIEwzMCwyMyBMMzAsMjAgTDMzLDIwIEwzMywxOSBMMzAsMTkgTDMwLDE2IEwzMywxNiBMMzMsMTUgTDMwLDE1IEwzMCwxMiBMMzMsMTIgWiIvPiYjeGE7ICAgIDwvZz4mI3hhOzwvc3ZnPg==;fontColor=#FFFFFF;" vertex="1" parent="1">
          <mxGeometry x="700" y="570" width="40" height="40" as="geometry" />
        </mxCell>
        <mxCell id="xotWHUOHVs64-DjdIuKV-69" value="kslave4" style="shape=image;verticalLabelPosition=bottom;labelBackgroundColor=#4E5862;verticalAlign=top;aspect=fixed;imageAspect=0;image=data:image/svg+xml,PHN2ZyB4bWxuczp4bGluaz0iaHR0cDovL3d3dy53My5vcmcvMTk5OS94bGluayIgeG1sbnM9Imh0dHA6Ly93d3cudzMub3JnLzIwMDAvc3ZnIiB2ZXJzaW9uPSIxLjEiIHZpZXdCb3g9IjAgMCA0MCA0MCIgaGVpZ2h0PSI0MHB4IiB3aWR0aD0iNDBweCI+JiN4YTsgICAgPHRpdGxlPkljb24tQXJjaGl0ZWN0dXJlLUdyb3VwLzMyL0VDMi1pbnN0YW5jZS1jb250ZW50c18zMjwvdGl0bGU+JiN4YTsgICAgPGcgZmlsbC1ydWxlPSJldmVub2RkIiBmaWxsPSJub25lIiBzdHJva2Utd2lkdGg9IjEiIHN0cm9rZT0ibm9uZSIgaWQ9Ikljb24tQXJjaGl0ZWN0dXJlLUdyb3VwLzMyL0VDMi1pbnN0YW5jZS1jb250ZW50c18zMiI+JiN4YTsgICAgICAgIDxyZWN0IGhlaWdodD0iNDAiIHdpZHRoPSI0MCIgeT0iMCIgeD0iMCIgZmlsbD0iI0VENzEwMCIgaWQ9IlJlY3RhbmdsZSIvPiYjeGE7ICAgICAgICA8cGF0aCBmaWxsPSIjRkZGRkZGIiBpZD0iRmlsbC0xIiBkPSJNMTAsMjkgTDI5LDI5IEwyOSwxMCBMMTAsMTAgTDEwLDI5IFogTTMzLDEyIEwzMywxMSBMMzAsMTEgTDMwLDkuNSBDMzAsOS4yMjQgMjkuNzc2LDkgMjkuNSw5IEwyOCw5IEwyOCw2IEwyNyw2IEwyNyw5IEwyNCw5IEwyNCw2IEwyMyw2IEwyMyw5IEwyMCw5IEwyMCw2IEwxOSw2IEwxOSw5IEwxNiw5IEwxNiw2IEwxNSw2IEwxNSw5IEwxMiw5IEwxMiw2IEwxMSw2IEwxMSw5IEw5LjUsOSBDOS4yMjQsOSA5LDkuMjI0IDksOS41IEw5LDExIEw2LDExIEw2LDEyIEw5LDEyIEw5LDE1IEw2LDE1IEw2LDE2IEw5LDE2IEw5LDE5IEw2LDE5IEw2LDIwIEw5LDIwIEw5LDIzIEw2LDIzIEw2LDI0IEw5LDI0IEw5LDI3IEw2LDI3IEw2LDI4IEw5LDI4IEw5LDI5LjUgQzksMjkuNzc2IDkuMjI0LDMwIDkuNSwzMCBMMTEsMzAgTDExLDMzIEwxMiwzMyBMMTIsMzAgTDE1LDMwIEwxNSwzMyBMMTYsMzMgTDE2LDMwIEwxOSwzMCBMMTksMzMgTDIwLDMzIEwyMCwzMCBMMjMsMzAgTDIzLDMzIEwyNCwzMyBMMjQsMzAgTDI3LDMwIEwyNywzMyBMMjgsMzMgTDI4LDMwIEwyOS41LDMwIEMyOS43NzYsMzAgMzAsMjkuNzc2IDMwLDI5LjUgTDMwLDI4IEwzMywyOCBMMzMsMjcgTDMwLDI3IEwzMCwyNCBMMzMsMjQgTDMzLDIzIEwzMCwyMyBMMzAsMjAgTDMzLDIwIEwzMywxOSBMMzAsMTkgTDMwLDE2IEwzMywxNiBMMzMsMTUgTDMwLDE1IEwzMCwxMiBMMzMsMTIgWiIvPiYjeGE7ICAgIDwvZz4mI3hhOzwvc3ZnPg==;fontColor=#FFFFFF;" vertex="1" parent="1">
          <mxGeometry x="760" y="570" width="40" height="40" as="geometry" />
        </mxCell>
        <mxCell id="xotWHUOHVs64-DjdIuKV-71" value="kmaster1" style="shape=image;verticalLabelPosition=bottom;labelBackgroundColor=#4E5862;verticalAlign=top;aspect=fixed;imageAspect=0;image=data:image/svg+xml,PHN2ZyB4bWxuczp4bGluaz0iaHR0cDovL3d3dy53My5vcmcvMTk5OS94bGluayIgeG1sbnM9Imh0dHA6Ly93d3cudzMub3JnLzIwMDAvc3ZnIiB2ZXJzaW9uPSIxLjEiIHZpZXdCb3g9IjAgMCA0MCA0MCIgaGVpZ2h0PSI0MHB4IiB3aWR0aD0iNDBweCI+JiN4YTsgICAgPHRpdGxlPkljb24tQXJjaGl0ZWN0dXJlLUdyb3VwLzMyL0VDMi1pbnN0YW5jZS1jb250ZW50c18zMjwvdGl0bGU+JiN4YTsgICAgPGcgZmlsbC1ydWxlPSJldmVub2RkIiBmaWxsPSJub25lIiBzdHJva2Utd2lkdGg9IjEiIHN0cm9rZT0ibm9uZSIgaWQ9Ikljb24tQXJjaGl0ZWN0dXJlLUdyb3VwLzMyL0VDMi1pbnN0YW5jZS1jb250ZW50c18zMiI+JiN4YTsgICAgICAgIDxyZWN0IGhlaWdodD0iNDAiIHdpZHRoPSI0MCIgeT0iMCIgeD0iMCIgZmlsbD0iI0VENzEwMCIgaWQ9IlJlY3RhbmdsZSIvPiYjeGE7ICAgICAgICA8cGF0aCBmaWxsPSIjRkZGRkZGIiBpZD0iRmlsbC0xIiBkPSJNMTAsMjkgTDI5LDI5IEwyOSwxMCBMMTAsMTAgTDEwLDI5IFogTTMzLDEyIEwzMywxMSBMMzAsMTEgTDMwLDkuNSBDMzAsOS4yMjQgMjkuNzc2LDkgMjkuNSw5IEwyOCw5IEwyOCw2IEwyNyw2IEwyNyw5IEwyNCw5IEwyNCw2IEwyMyw2IEwyMyw5IEwyMCw5IEwyMCw2IEwxOSw2IEwxOSw5IEwxNiw5IEwxNiw2IEwxNSw2IEwxNSw5IEwxMiw5IEwxMiw2IEwxMSw2IEwxMSw5IEw5LjUsOSBDOS4yMjQsOSA5LDkuMjI0IDksOS41IEw5LDExIEw2LDExIEw2LDEyIEw5LDEyIEw5LDE1IEw2LDE1IEw2LDE2IEw5LDE2IEw5LDE5IEw2LDE5IEw2LDIwIEw5LDIwIEw5LDIzIEw2LDIzIEw2LDI0IEw5LDI0IEw5LDI3IEw2LDI3IEw2LDI4IEw5LDI4IEw5LDI5LjUgQzksMjkuNzc2IDkuMjI0LDMwIDkuNSwzMCBMMTEsMzAgTDExLDMzIEwxMiwzMyBMMTIsMzAgTDE1LDMwIEwxNSwzMyBMMTYsMzMgTDE2LDMwIEwxOSwzMCBMMTksMzMgTDIwLDMzIEwyMCwzMCBMMjMsMzAgTDIzLDMzIEwyNCwzMyBMMjQsMzAgTDI3LDMwIEwyNywzMyBMMjgsMzMgTDI4LDMwIEwyOS41LDMwIEMyOS43NzYsMzAgMzAsMjkuNzc2IDMwLDI5LjUgTDMwLDI4IEwzMywyOCBMMzMsMjcgTDMwLDI3IEwzMCwyNCBMMzMsMjQgTDMzLDIzIEwzMCwyMyBMMzAsMjAgTDMzLDIwIEwzMywxOSBMMzAsMTkgTDMwLDE2IEwzMywxNiBMMzMsMTUgTDMwLDE1IEwzMCwxMiBMMzMsMTIgWiIvPiYjeGE7ICAgIDwvZz4mI3hhOzwvc3ZnPg==;fontColor=#FFFFFF;" vertex="1" parent="1">
          <mxGeometry x="1030" y="500" width="40" height="40" as="geometry" />
        </mxCell>
        <mxCell id="xotWHUOHVs64-DjdIuKV-72" value="kslave5" style="shape=image;verticalLabelPosition=bottom;labelBackgroundColor=#4E5862;verticalAlign=top;aspect=fixed;imageAspect=0;image=data:image/svg+xml,PHN2ZyB4bWxuczp4bGluaz0iaHR0cDovL3d3dy53My5vcmcvMTk5OS94bGluayIgeG1sbnM9Imh0dHA6Ly93d3cudzMub3JnLzIwMDAvc3ZnIiB2ZXJzaW9uPSIxLjEiIHZpZXdCb3g9IjAgMCA0MCA0MCIgaGVpZ2h0PSI0MHB4IiB3aWR0aD0iNDBweCI+JiN4YTsgICAgPHRpdGxlPkljb24tQXJjaGl0ZWN0dXJlLUdyb3VwLzMyL0VDMi1pbnN0YW5jZS1jb250ZW50c18zMjwvdGl0bGU+JiN4YTsgICAgPGcgZmlsbC1ydWxlPSJldmVub2RkIiBmaWxsPSJub25lIiBzdHJva2Utd2lkdGg9IjEiIHN0cm9rZT0ibm9uZSIgaWQ9Ikljb24tQXJjaGl0ZWN0dXJlLUdyb3VwLzMyL0VDMi1pbnN0YW5jZS1jb250ZW50c18zMiI+JiN4YTsgICAgICAgIDxyZWN0IGhlaWdodD0iNDAiIHdpZHRoPSI0MCIgeT0iMCIgeD0iMCIgZmlsbD0iI0VENzEwMCIgaWQ9IlJlY3RhbmdsZSIvPiYjeGE7ICAgICAgICA8cGF0aCBmaWxsPSIjRkZGRkZGIiBpZD0iRmlsbC0xIiBkPSJNMTAsMjkgTDI5LDI5IEwyOSwxMCBMMTAsMTAgTDEwLDI5IFogTTMzLDEyIEwzMywxMSBMMzAsMTEgTDMwLDkuNSBDMzAsOS4yMjQgMjkuNzc2LDkgMjkuNSw5IEwyOCw5IEwyOCw2IEwyNyw2IEwyNyw5IEwyNCw5IEwyNCw2IEwyMyw2IEwyMyw5IEwyMCw5IEwyMCw2IEwxOSw2IEwxOSw5IEwxNiw5IEwxNiw2IEwxNSw2IEwxNSw5IEwxMiw5IEwxMiw2IEwxMSw2IEwxMSw5IEw5LjUsOSBDOS4yMjQsOSA5LDkuMjI0IDksOS41IEw5LDExIEw2LDExIEw2LDEyIEw5LDEyIEw5LDE1IEw2LDE1IEw2LDE2IEw5LDE2IEw5LDE5IEw2LDE5IEw2LDIwIEw5LDIwIEw5LDIzIEw2LDIzIEw2LDI0IEw5LDI0IEw5LDI3IEw2LDI3IEw2LDI4IEw5LDI4IEw5LDI5LjUgQzksMjkuNzc2IDkuMjI0LDMwIDkuNSwzMCBMMTEsMzAgTDExLDMzIEwxMiwzMyBMMTIsMzAgTDE1LDMwIEwxNSwzMyBMMTYsMzMgTDE2LDMwIEwxOSwzMCBMMTksMzMgTDIwLDMzIEwyMCwzMCBMMjMsMzAgTDIzLDMzIEwyNCwzMyBMMjQsMzAgTDI3LDMwIEwyNywzMyBMMjgsMzMgTDI4LDMwIEwyOS41LDMwIEMyOS43NzYsMzAgMzAsMjkuNzc2IDMwLDI5LjUgTDMwLDI4IEwzMywyOCBMMzMsMjcgTDMwLDI3IEwzMCwyNCBMMzMsMjQgTDMzLDIzIEwzMCwyMyBMMzAsMjAgTDMzLDIwIEwzMywxOSBMMzAsMTkgTDMwLDE2IEwzMywxNiBMMzMsMTUgTDMwLDE1IEwzMCwxMiBMMzMsMTIgWiIvPiYjeGE7ICAgIDwvZz4mI3hhOzwvc3ZnPg==;fontColor=#FFFFFF;" vertex="1" parent="1">
          <mxGeometry x="1030" y="570" width="40" height="40" as="geometry" />
        </mxCell>
        <mxCell id="xotWHUOHVs64-DjdIuKV-73" value="kslave-n" style="shape=image;verticalLabelPosition=bottom;labelBackgroundColor=#4E5862;verticalAlign=top;aspect=fixed;imageAspect=0;image=data:image/svg+xml,PHN2ZyB4bWxuczp4bGluaz0iaHR0cDovL3d3dy53My5vcmcvMTk5OS94bGluayIgeG1sbnM9Imh0dHA6Ly93d3cudzMub3JnLzIwMDAvc3ZnIiB2ZXJzaW9uPSIxLjEiIHZpZXdCb3g9IjAgMCA0MCA0MCIgaGVpZ2h0PSI0MHB4IiB3aWR0aD0iNDBweCI+JiN4YTsgICAgPHRpdGxlPkljb24tQXJjaGl0ZWN0dXJlLUdyb3VwLzMyL0VDMi1pbnN0YW5jZS1jb250ZW50c18zMjwvdGl0bGU+JiN4YTsgICAgPGcgZmlsbC1ydWxlPSJldmVub2RkIiBmaWxsPSJub25lIiBzdHJva2Utd2lkdGg9IjEiIHN0cm9rZT0ibm9uZSIgaWQ9Ikljb24tQXJjaGl0ZWN0dXJlLUdyb3VwLzMyL0VDMi1pbnN0YW5jZS1jb250ZW50c18zMiI+JiN4YTsgICAgICAgIDxyZWN0IGhlaWdodD0iNDAiIHdpZHRoPSI0MCIgeT0iMCIgeD0iMCIgZmlsbD0iI0VENzEwMCIgaWQ9IlJlY3RhbmdsZSIvPiYjeGE7ICAgICAgICA8cGF0aCBmaWxsPSIjRkZGRkZGIiBpZD0iRmlsbC0xIiBkPSJNMTAsMjkgTDI5LDI5IEwyOSwxMCBMMTAsMTAgTDEwLDI5IFogTTMzLDEyIEwzMywxMSBMMzAsMTEgTDMwLDkuNSBDMzAsOS4yMjQgMjkuNzc2LDkgMjkuNSw5IEwyOCw5IEwyOCw2IEwyNyw2IEwyNyw5IEwyNCw5IEwyNCw2IEwyMyw2IEwyMyw5IEwyMCw5IEwyMCw2IEwxOSw2IEwxOSw5IEwxNiw5IEwxNiw2IEwxNSw2IEwxNSw5IEwxMiw5IEwxMiw2IEwxMSw2IEwxMSw5IEw5LjUsOSBDOS4yMjQsOSA5LDkuMjI0IDksOS41IEw5LDExIEw2LDExIEw2LDEyIEw5LDEyIEw5LDE1IEw2LDE1IEw2LDE2IEw5LDE2IEw5LDE5IEw2LDE5IEw2LDIwIEw5LDIwIEw5LDIzIEw2LDIzIEw2LDI0IEw5LDI0IEw5LDI3IEw2LDI3IEw2LDI4IEw5LDI4IEw5LDI5LjUgQzksMjkuNzc2IDkuMjI0LDMwIDkuNSwzMCBMMTEsMzAgTDExLDMzIEwxMiwzMyBMMTIsMzAgTDE1LDMwIEwxNSwzMyBMMTYsMzMgTDE2LDMwIEwxOSwzMCBMMTksMzMgTDIwLDMzIEwyMCwzMCBMMjMsMzAgTDIzLDMzIEwyNCwzMyBMMjQsMzAgTDI3LDMwIEwyNywzMyBMMjgsMzMgTDI4LDMwIEwyOS41LDMwIEMyOS43NzYsMzAgMzAsMjkuNzc2IDMwLDI5LjUgTDMwLDI4IEwzMywyOCBMMzMsMjcgTDMwLDI3IEwzMCwyNCBMMzMsMjQgTDMzLDIzIEwzMCwyMyBMMzAsMjAgTDMzLDIwIEwzMywxOSBMMzAsMTkgTDMwLDE2IEwzMywxNiBMMzMsMTUgTDMwLDE1IEwzMCwxMiBMMzMsMTIgWiIvPiYjeGE7ICAgIDwvZz4mI3hhOzwvc3ZnPg==;fontColor=#FFFFFF;opacity=50;" vertex="1" parent="1">
          <mxGeometry x="1090" y="570" width="40" height="40" as="geometry" />
        </mxCell>
        <mxCell id="xotWHUOHVs64-DjdIuKV-74" value="kslave-n+1" style="shape=image;verticalLabelPosition=bottom;labelBackgroundColor=#4E5862;verticalAlign=top;aspect=fixed;imageAspect=0;image=data:image/svg+xml,PHN2ZyB4bWxuczp4bGluaz0iaHR0cDovL3d3dy53My5vcmcvMTk5OS94bGluayIgeG1sbnM9Imh0dHA6Ly93d3cudzMub3JnLzIwMDAvc3ZnIiB2ZXJzaW9uPSIxLjEiIHZpZXdCb3g9IjAgMCA0MCA0MCIgaGVpZ2h0PSI0MHB4IiB3aWR0aD0iNDBweCI+JiN4YTsgICAgPHRpdGxlPkljb24tQXJjaGl0ZWN0dXJlLUdyb3VwLzMyL0VDMi1pbnN0YW5jZS1jb250ZW50c18zMjwvdGl0bGU+JiN4YTsgICAgPGcgZmlsbC1ydWxlPSJldmVub2RkIiBmaWxsPSJub25lIiBzdHJva2Utd2lkdGg9IjEiIHN0cm9rZT0ibm9uZSIgaWQ9Ikljb24tQXJjaGl0ZWN0dXJlLUdyb3VwLzMyL0VDMi1pbnN0YW5jZS1jb250ZW50c18zMiI+JiN4YTsgICAgICAgIDxyZWN0IGhlaWdodD0iNDAiIHdpZHRoPSI0MCIgeT0iMCIgeD0iMCIgZmlsbD0iI0VENzEwMCIgaWQ9IlJlY3RhbmdsZSIvPiYjeGE7ICAgICAgICA8cGF0aCBmaWxsPSIjRkZGRkZGIiBpZD0iRmlsbC0xIiBkPSJNMTAsMjkgTDI5LDI5IEwyOSwxMCBMMTAsMTAgTDEwLDI5IFogTTMzLDEyIEwzMywxMSBMMzAsMTEgTDMwLDkuNSBDMzAsOS4yMjQgMjkuNzc2LDkgMjkuNSw5IEwyOCw5IEwyOCw2IEwyNyw2IEwyNyw5IEwyNCw5IEwyNCw2IEwyMyw2IEwyMyw5IEwyMCw5IEwyMCw2IEwxOSw2IEwxOSw5IEwxNiw5IEwxNiw2IEwxNSw2IEwxNSw5IEwxMiw5IEwxMiw2IEwxMSw2IEwxMSw5IEw5LjUsOSBDOS4yMjQsOSA5LDkuMjI0IDksOS41IEw5LDExIEw2LDExIEw2LDEyIEw5LDEyIEw5LDE1IEw2LDE1IEw2LDE2IEw5LDE2IEw5LDE5IEw2LDE5IEw2LDIwIEw5LDIwIEw5LDIzIEw2LDIzIEw2LDI0IEw5LDI0IEw5LDI3IEw2LDI3IEw2LDI4IEw5LDI4IEw5LDI5LjUgQzksMjkuNzc2IDkuMjI0LDMwIDkuNSwzMCBMMTEsMzAgTDExLDMzIEwxMiwzMyBMMTIsMzAgTDE1LDMwIEwxNSwzMyBMMTYsMzMgTDE2LDMwIEwxOSwzMCBMMTksMzMgTDIwLDMzIEwyMCwzMCBMMjMsMzAgTDIzLDMzIEwyNCwzMyBMMjQsMzAgTDI3LDMwIEwyNywzMyBMMjgsMzMgTDI4LDMwIEwyOS41LDMwIEMyOS43NzYsMzAgMzAsMjkuNzc2IDMwLDI5LjUgTDMwLDI4IEwzMywyOCBMMzMsMjcgTDMwLDI3IEwzMCwyNCBMMzMsMjQgTDMzLDIzIEwzMCwyMyBMMzAsMjAgTDMzLDIwIEwzMywxOSBMMzAsMTkgTDMwLDE2IEwzMywxNiBMMzMsMTUgTDMwLDE1IEwzMCwxMiBMMzMsMTIgWiIvPiYjeGE7ICAgIDwvZz4mI3hhOzwvc3ZnPg==;fontColor=#FFFFFF;opacity=50;" vertex="1" parent="1">
          <mxGeometry x="500" y="570" width="40" height="40" as="geometry" />
        </mxCell>
        <mxCell id="xotWHUOHVs64-DjdIuKV-75" value="kslave-n+2" style="shape=image;verticalLabelPosition=bottom;labelBackgroundColor=#4E5862;verticalAlign=top;aspect=fixed;imageAspect=0;image=data:image/svg+xml,PHN2ZyB4bWxuczp4bGluaz0iaHR0cDovL3d3dy53My5vcmcvMTk5OS94bGluayIgeG1sbnM9Imh0dHA6Ly93d3cudzMub3JnLzIwMDAvc3ZnIiB2ZXJzaW9uPSIxLjEiIHZpZXdCb3g9IjAgMCA0MCA0MCIgaGVpZ2h0PSI0MHB4IiB3aWR0aD0iNDBweCI+JiN4YTsgICAgPHRpdGxlPkljb24tQXJjaGl0ZWN0dXJlLUdyb3VwLzMyL0VDMi1pbnN0YW5jZS1jb250ZW50c18zMjwvdGl0bGU+JiN4YTsgICAgPGcgZmlsbC1ydWxlPSJldmVub2RkIiBmaWxsPSJub25lIiBzdHJva2Utd2lkdGg9IjEiIHN0cm9rZT0ibm9uZSIgaWQ9Ikljb24tQXJjaGl0ZWN0dXJlLUdyb3VwLzMyL0VDMi1pbnN0YW5jZS1jb250ZW50c18zMiI+JiN4YTsgICAgICAgIDxyZWN0IGhlaWdodD0iNDAiIHdpZHRoPSI0MCIgeT0iMCIgeD0iMCIgZmlsbD0iI0VENzEwMCIgaWQ9IlJlY3RhbmdsZSIvPiYjeGE7ICAgICAgICA8cGF0aCBmaWxsPSIjRkZGRkZGIiBpZD0iRmlsbC0xIiBkPSJNMTAsMjkgTDI5LDI5IEwyOSwxMCBMMTAsMTAgTDEwLDI5IFogTTMzLDEyIEwzMywxMSBMMzAsMTEgTDMwLDkuNSBDMzAsOS4yMjQgMjkuNzc2LDkgMjkuNSw5IEwyOCw5IEwyOCw2IEwyNyw2IEwyNyw5IEwyNCw5IEwyNCw2IEwyMyw2IEwyMyw5IEwyMCw5IEwyMCw2IEwxOSw2IEwxOSw5IEwxNiw5IEwxNiw2IEwxNSw2IEwxNSw5IEwxMiw5IEwxMiw2IEwxMSw2IEwxMSw5IEw5LjUsOSBDOS4yMjQsOSA5LDkuMjI0IDksOS41IEw5LDExIEw2LDExIEw2LDEyIEw5LDEyIEw5LDE1IEw2LDE1IEw2LDE2IEw5LDE2IEw5LDE5IEw2LDE5IEw2LDIwIEw5LDIwIEw5LDIzIEw2LDIzIEw2LDI0IEw5LDI0IEw5LDI3IEw2LDI3IEw2LDI4IEw5LDI4IEw5LDI5LjUgQzksMjkuNzc2IDkuMjI0LDMwIDkuNSwzMCBMMTEsMzAgTDExLDMzIEwxMiwzMyBMMTIsMzAgTDE1LDMwIEwxNSwzMyBMMTYsMzMgTDE2LDMwIEwxOSwzMCBMMTksMzMgTDIwLDMzIEwyMCwzMCBMMjMsMzAgTDIzLDMzIEwyNCwzMyBMMjQsMzAgTDI3LDMwIEwyNywzMyBMMjgsMzMgTDI4LDMwIEwyOS41LDMwIEMyOS43NzYsMzAgMzAsMjkuNzc2IDMwLDI5LjUgTDMwLDI4IEwzMywyOCBMMzMsMjcgTDMwLDI3IEwzMCwyNCBMMzMsMjQgTDMzLDIzIEwzMCwyMyBMMzAsMjAgTDMzLDIwIEwzMywxOSBMMzAsMTkgTDMwLDE2IEwzMywxNiBMMzMsMTUgTDMwLDE1IEwzMCwxMiBMMzMsMTIgWiIvPiYjeGE7ICAgIDwvZz4mI3hhOzwvc3ZnPg==;fontColor=#FFFFFF;opacity=50;" vertex="1" parent="1">
          <mxGeometry x="820" y="570" width="40" height="40" as="geometry" />
        </mxCell>
        <mxCell id="xotWHUOHVs64-DjdIuKV-78" value="kslave-n+3" style="shape=image;verticalLabelPosition=bottom;labelBackgroundColor=#4E5862;verticalAlign=top;aspect=fixed;imageAspect=0;image=data:image/svg+xml,PHN2ZyB4bWxuczp4bGluaz0iaHR0cDovL3d3dy53My5vcmcvMTk5OS94bGluayIgeG1sbnM9Imh0dHA6Ly93d3cudzMub3JnLzIwMDAvc3ZnIiB2ZXJzaW9uPSIxLjEiIHZpZXdCb3g9IjAgMCA0MCA0MCIgaGVpZ2h0PSI0MHB4IiB3aWR0aD0iNDBweCI+JiN4YTsgICAgPHRpdGxlPkljb24tQXJjaGl0ZWN0dXJlLUdyb3VwLzMyL0VDMi1pbnN0YW5jZS1jb250ZW50c18zMjwvdGl0bGU+JiN4YTsgICAgPGcgZmlsbC1ydWxlPSJldmVub2RkIiBmaWxsPSJub25lIiBzdHJva2Utd2lkdGg9IjEiIHN0cm9rZT0ibm9uZSIgaWQ9Ikljb24tQXJjaGl0ZWN0dXJlLUdyb3VwLzMyL0VDMi1pbnN0YW5jZS1jb250ZW50c18zMiI+JiN4YTsgICAgICAgIDxyZWN0IGhlaWdodD0iNDAiIHdpZHRoPSI0MCIgeT0iMCIgeD0iMCIgZmlsbD0iI0VENzEwMCIgaWQ9IlJlY3RhbmdsZSIvPiYjeGE7ICAgICAgICA8cGF0aCBmaWxsPSIjRkZGRkZGIiBpZD0iRmlsbC0xIiBkPSJNMTAsMjkgTDI5LDI5IEwyOSwxMCBMMTAsMTAgTDEwLDI5IFogTTMzLDEyIEwzMywxMSBMMzAsMTEgTDMwLDkuNSBDMzAsOS4yMjQgMjkuNzc2LDkgMjkuNSw5IEwyOCw5IEwyOCw2IEwyNyw2IEwyNyw5IEwyNCw5IEwyNCw2IEwyMyw2IEwyMyw5IEwyMCw5IEwyMCw2IEwxOSw2IEwxOSw5IEwxNiw5IEwxNiw2IEwxNSw2IEwxNSw5IEwxMiw5IEwxMiw2IEwxMSw2IEwxMSw5IEw5LjUsOSBDOS4yMjQsOSA5LDkuMjI0IDksOS41IEw5LDExIEw2LDExIEw2LDEyIEw5LDEyIEw5LDE1IEw2LDE1IEw2LDE2IEw5LDE2IEw5LDE5IEw2LDE5IEw2LDIwIEw5LDIwIEw5LDIzIEw2LDIzIEw2LDI0IEw5LDI0IEw5LDI3IEw2LDI3IEw2LDI4IEw5LDI4IEw5LDI5LjUgQzksMjkuNzc2IDkuMjI0LDMwIDkuNSwzMCBMMTEsMzAgTDExLDMzIEwxMiwzMyBMMTIsMzAgTDE1LDMwIEwxNSwzMyBMMTYsMzMgTDE2LDMwIEwxOSwzMCBMMTksMzMgTDIwLDMzIEwyMCwzMCBMMjMsMzAgTDIzLDMzIEwyNCwzMyBMMjQsMzAgTDI3LDMwIEwyNywzMyBMMjgsMzMgTDI4LDMwIEwyOS41LDMwIEMyOS43NzYsMzAgMzAsMjkuNzc2IDMwLDI5LjUgTDMwLDI4IEwzMywyOCBMMzMsMjcgTDMwLDI3IEwzMCwyNCBMMzMsMjQgTDMzLDIzIEwzMCwyMyBMMzAsMjAgTDMzLDIwIEwzMywxOSBMMzAsMTkgTDMwLDE2IEwzMywxNiBMMzMsMTUgTDMwLDE1IEwzMCwxMiBMMzMsMTIgWiIvPiYjeGE7ICAgIDwvZz4mI3hhOzwvc3ZnPg==;fontColor=#FFFFFF;opacity=50;" vertex="1" parent="1">
          <mxGeometry x="1150" y="570" width="40" height="40" as="geometry" />
        </mxCell>
        <mxCell id="xotWHUOHVs64-DjdIuKV-79" value="&lt;font color=&quot;#ffffff&quot;&gt;ap-southeast-1c&lt;/font&gt;" style="text;html=1;align=center;verticalAlign=middle;whiteSpace=wrap;rounded=0;" vertex="1" parent="1">
          <mxGeometry x="1060" y="100" width="120" height="40" as="geometry" />
        </mxCell>
      </root>
    </mxGraphModel>
  </diagram>
</mxfile>
